<svg class="main-svg" xmlns="http://www.w3.org/2000/svg" xmlns:xlink="http://www.w3.org/1999/xlink" width="1280" height="350" style="" viewBox="0 0 1280 350"><rect x="0" y="0" width="1280" height="350" style="fill: rgb(33, 34, 44); fill-opacity: 1;"/><defs id="defs-981c16"><g class="clips"><clipPath id="clip981c16xyplot" class="plotclip"><rect width="1202" height="261"/></clipPath><clipPath class="axesclip" id="clip981c16x"><rect x="48" y="0" width="1202" height="350"/></clipPath><clipPath class="axesclip" id="clip981c16y"><rect x="0" y="46" width="1280" height="261"/></clipPath><clipPath class="axesclip" id="clip981c16xy"><rect x="48" y="46" width="1202" height="261"/></clipPath></g><g class="gradients"/><g class="patterns"/></defs><g class="bglayer"/><g class="layer-below"><g class="imagelayer"/><g class="shapelayer"/></g><g class="cartesianlayer"><g class="subplot xy"><g class="layer-subplot"><g class="shapelayer"/><g class="imagelayer"/></g><g class="minor-gridlayer"><g class="x"/><g class="y"/></g><g class="gridlayer"><g class="x"><path class="xgrid crisp" transform="translate(78.05,0)" d="M0,46v261" style="stroke: rgb(47, 62, 78); stroke-opacity: 1; stroke-width: 1px;"/><path class="xgrid crisp" transform="translate(222.29,0)" d="M0,46v261" style="stroke: rgb(47, 62, 78); stroke-opacity: 1; stroke-width: 1px;"/><path class="xgrid crisp" transform="translate(366.53,0)" d="M0,46v261" style="stroke: rgb(47, 62, 78); stroke-opacity: 1; stroke-width: 1px;"/><path class="xgrid crisp" transform="translate(510.77,0)" d="M0,46v261" style="stroke: rgb(47, 62, 78); stroke-opacity: 1; stroke-width: 1px;"/><path class="xgrid crisp" transform="translate(655.01,0)" d="M0,46v261" style="stroke: rgb(47, 62, 78); stroke-opacity: 1; stroke-width: 1px;"/><path class="xgrid crisp" transform="translate(799.25,0)" d="M0,46v261" style="stroke: rgb(47, 62, 78); stroke-opacity: 1; stroke-width: 1px;"/><path class="xgrid crisp" transform="translate(943.49,0)" d="M0,46v261" style="stroke: rgb(47, 62, 78); stroke-opacity: 1; stroke-width: 1px;"/><path class="xgrid crisp" transform="translate(1087.73,0)" d="M0,46v261" style="stroke: rgb(47, 62, 78); stroke-opacity: 1; stroke-width: 1px;"/><path class="xgrid crisp" transform="translate(1231.97,0)" d="M0,46v261" style="stroke: rgb(47, 62, 78); stroke-opacity: 1; stroke-width: 1px;"/></g><g class="y"><path class="ygrid crisp" transform="translate(0,272.18)" d="M48,0h1202" style="stroke: rgb(47, 62, 78); stroke-opacity: 1; stroke-width: 1px;"/><path class="ygrid crisp" transform="translate(0,235.61)" d="M48,0h1202" style="stroke: rgb(47, 62, 78); stroke-opacity: 1; stroke-width: 1px;"/><path class="ygrid crisp" transform="translate(0,199.04)" d="M48,0h1202" style="stroke: rgb(47, 62, 78); stroke-opacity: 1; stroke-width: 1px;"/><path class="ygrid crisp" transform="translate(0,162.47)" d="M48,0h1202" style="stroke: rgb(47, 62, 78); stroke-opacity: 1; stroke-width: 1px;"/><path class="ygrid crisp" transform="translate(0,125.9)" d="M48,0h1202" style="stroke: rgb(47, 62, 78); stroke-opacity: 1; stroke-width: 1px;"/><path class="ygrid crisp" transform="translate(0,89.32)" d="M48,0h1202" style="stroke: rgb(47, 62, 78); stroke-opacity: 1; stroke-width: 1px;"/><path class="ygrid crisp" transform="translate(0,52.75)" d="M48,0h1202" style="stroke: rgb(47, 62, 78); stroke-opacity: 1; stroke-width: 1px;"/></g></g><g class="zerolinelayer"/><path class="xlines-below"/><path class="ylines-below"/><g class="overlines-below"/><g class="xaxislayer-below"/><g class="yaxislayer-below"/><g class="overaxes-below"/><g class="plot" transform="translate(48,46)" clip-path="url(#clip981c16xyplot)"><g class="boxlayer mlayer"><g class="trace boxes" style="opacity: 0.75;"><path class="box" d="M3.07,203.97H8.95M3.07,204.97H8.95V198.83H3.07ZM6.01,204.97V205.88M6.01,198.83V192.28" style="vector-effect: non-scaling-stroke; stroke-width: 2px; stroke: rgb(238, 83, 79); stroke-opacity: 1; fill: rgb(238, 83, 79); fill-opacity: 1; opacity: 1;"/><path class="box" d="M15.09,197.78H20.97M15.09,204.64H20.97V196.78H15.09ZM18.03,204.64V206.18M18.03,196.78V196.16" style="vector-effect: non-scaling-stroke; stroke-width: 2px; stroke: rgb(38, 166, 154); stroke-opacity: 1; fill: rgb(38, 166, 154); fill-opacity: 1; opacity: 1;"/><path class="box" d="M27.11,147.05H32.99M27.11,196.78H32.99V146.05H27.11ZM30.05,196.78V198.17M30.05,146.05V140.31" style="vector-effect: non-scaling-stroke; stroke-width: 2px; stroke: rgb(38, 166, 154); stroke-opacity: 1; fill: rgb(38, 166, 154); fill-opacity: 1; opacity: 1;"/><path class="box" d="M39.13,115.27H45.01M39.13,145.72H45.01V114.27H39.13ZM42.07,145.72V158.71M42.07,114.27V97.38" style="vector-effect: non-scaling-stroke; stroke-width: 2px; stroke: rgb(38, 166, 154); stroke-opacity: 1; fill: rgb(38, 166, 154); fill-opacity: 1; opacity: 1;"/><path class="box" d="M51.15,108.4H57.03M51.15,114.31H57.03V107.4H51.15ZM54.09,114.31V133.47M54.09,107.4V106.23" style="vector-effect: non-scaling-stroke; stroke-width: 2px; stroke: rgb(38, 166, 154); stroke-opacity: 1; fill: rgb(38, 166, 154); fill-opacity: 1; opacity: 1;"/><path class="box" d="M63.17,86.31H69.05M63.17,107.76H69.05V85.31H63.17ZM66.11,107.76V112.59M66.11,85.31V82.97" style="vector-effect: non-scaling-stroke; stroke-width: 2px; stroke: rgb(38, 166, 154); stroke-opacity: 1; fill: rgb(38, 166, 154); fill-opacity: 1; opacity: 1;"/><path class="box" d="M75.19,79.69H81.07M75.19,85.24H81.07V78.69H75.19ZM78.13,85.24V87.72M78.13,78.69V75.03" style="vector-effect: non-scaling-stroke; stroke-width: 2px; stroke: rgb(38, 166, 154); stroke-opacity: 1; fill: rgb(38, 166, 154); fill-opacity: 1; opacity: 1;"/><path class="box" style="vector-effect: non-scaling-stroke;"/><path class="box" style="vector-effect: non-scaling-stroke;"/><path class="box" style="vector-effect: non-scaling-stroke;"/><path class="box" style="vector-effect: non-scaling-stroke;"/><path class="box" style="vector-effect: non-scaling-stroke;"/><path class="box" style="vector-effect: non-scaling-stroke;"/><path class="box" style="vector-effect: non-scaling-stroke;"/><path class="box" style="vector-effect: non-scaling-stroke;"/><path class="box" style="vector-effect: non-scaling-stroke;"/><path class="box" style="vector-effect: non-scaling-stroke;"/><path class="box" style="vector-effect: non-scaling-stroke;"/><path class="box" d="M219.43,83.49H225.31M219.43,95.8H225.31V82.49H219.43ZM222.37,95.8V95.8M222.37,82.49V76.24" style="vector-effect: non-scaling-stroke; stroke-width: 2px; stroke: rgb(38, 166, 154); stroke-opacity: 1; fill: rgb(38, 166, 154); fill-opacity: 1; opacity: 1;"/><path class="box" d="M231.45,100.33H237.33M231.45,101.33H237.33V82.79H231.45ZM234.39,101.33V101.77M234.39,82.79V81.36" style="vector-effect: non-scaling-stroke; stroke-width: 2px; stroke: rgb(238, 83, 79); stroke-opacity: 1; fill: rgb(238, 83, 79); fill-opacity: 1; opacity: 1;"/><path class="box" d="M243.47,107.82H249.35M243.47,108.82H249.35V101.33H243.47ZM246.41,108.82V118.88M246.41,101.33V94.67" style="vector-effect: non-scaling-stroke; stroke-width: 2px; stroke: rgb(238, 83, 79); stroke-opacity: 1; fill: rgb(238, 83, 79); fill-opacity: 1; opacity: 1;"/><path class="box" d="M255.49,124.54H261.37M255.49,125.54H261.37V108.82H255.49ZM258.43,125.54V134.24M258.43,108.82V107.43" style="vector-effect: non-scaling-stroke; stroke-width: 2px; stroke: rgb(238, 83, 79); stroke-opacity: 1; fill: rgb(238, 83, 79); fill-opacity: 1; opacity: 1;"/><path class="box" d="M267.51,136.09H273.39M267.51,137.09H273.39V125.32H267.51ZM270.45,137.09V153.48M270.45,125.32V103.19" style="vector-effect: non-scaling-stroke; stroke-width: 2px; stroke: rgb(238, 83, 79); stroke-opacity: 1; fill: rgb(238, 83, 79); fill-opacity: 1; opacity: 1;"/><path class="box" d="M279.53,134.73H285.41M279.53,137.06H285.41V133.73H279.53ZM282.47,137.06V142.18M282.47,133.73V130.44" style="vector-effect: non-scaling-stroke; stroke-width: 2px; stroke: rgb(38, 166, 154); stroke-opacity: 1; fill: rgb(38, 166, 154); fill-opacity: 1; opacity: 1;"/><path class="box" d="M291.55,134.28H297.43M291.55,134.28H297.43V133.84H291.55ZM294.49,134.28V137.28M294.49,133.84V129.63" style="vector-effect: non-scaling-stroke; stroke-width: 2px; stroke: rgb(238, 83, 79); stroke-opacity: 1; fill: rgb(238, 83, 79); fill-opacity: 1; opacity: 1;"/><path class="box" d="M303.57,143.26H309.45M303.57,144.26H309.45V134.31H303.57ZM306.51,144.26V147.33M306.51,134.31V131.53" style="vector-effect: non-scaling-stroke; stroke-width: 2px; stroke: rgb(238, 83, 79); stroke-opacity: 1; fill: rgb(238, 83, 79); fill-opacity: 1; opacity: 1;"/><path class="box" d="M315.59,153.65H321.47M315.59,154.65H321.47V144.19H315.59ZM318.53,154.65V158.12M318.53,144.19V133.95" style="vector-effect: non-scaling-stroke; stroke-width: 2px; stroke: rgb(238, 83, 79); stroke-opacity: 1; fill: rgb(238, 83, 79); fill-opacity: 1; opacity: 1;"/><path class="box" d="M327.61,140.29H333.49M327.61,154.65H333.49V139.29H327.61ZM330.55,154.65V158.49M330.55,139.29V138.23" style="vector-effect: non-scaling-stroke; stroke-width: 2px; stroke: rgb(38, 166, 154); stroke-opacity: 1; fill: rgb(38, 166, 154); fill-opacity: 1; opacity: 1;"/><path class="box" d="M339.63,86.24H345.51M339.63,139.29H345.51V85.24H339.63ZM342.57,139.29V144.77M342.57,85.24V83.59" style="vector-effect: non-scaling-stroke; stroke-width: 2px; stroke: rgb(38, 166, 154); stroke-opacity: 1; fill: rgb(38, 166, 154); fill-opacity: 1; opacity: 1;"/><path class="box" d="M351.65,78.88H357.53M351.65,85.24H357.53V77.88H351.65ZM354.59,85.24V88.97M354.59,77.88V59.75" style="vector-effect: non-scaling-stroke; stroke-width: 2px; stroke: rgb(38, 166, 154); stroke-opacity: 1; fill: rgb(38, 166, 154); fill-opacity: 1; opacity: 1;"/><path class="box" d="M363.67,78.76H369.55M363.67,78.76H369.55V78.25H363.67ZM366.61,78.76V84.54M366.61,78.25V73.31" style="vector-effect: non-scaling-stroke; stroke-width: 2px; stroke: rgb(238, 83, 79); stroke-opacity: 1; fill: rgb(238, 83, 79); fill-opacity: 1; opacity: 1;"/><path class="box" d="M375.69,90.82H381.57M375.69,91.82H381.57V78.84H375.69ZM378.63,91.82V92.04M378.63,78.84V74.85" style="vector-effect: non-scaling-stroke; stroke-width: 2px; stroke: rgb(238, 83, 79); stroke-opacity: 1; fill: rgb(238, 83, 79); fill-opacity: 1; opacity: 1;"/><path class="box" d="M387.71,98.64H393.59M387.71,99.64H393.59V91.78H387.71ZM390.65,99.64V108.17M390.65,91.78V81.91" style="vector-effect: non-scaling-stroke; stroke-width: 2px; stroke: rgb(238, 83, 79); stroke-opacity: 1; fill: rgb(238, 83, 79); fill-opacity: 1; opacity: 1;"/><path class="box" d="M399.73,111.41H405.61M399.73,112.41H405.61V99.64H399.73ZM402.67,112.41V124.29M402.67,99.64V95.73" style="vector-effect: non-scaling-stroke; stroke-width: 2px; stroke: rgb(238, 83, 79); stroke-opacity: 1; fill: rgb(238, 83, 79); fill-opacity: 1; opacity: 1;"/><path class="box" d="M411.75,98.08H417.63M411.75,112.37H417.63V97.08H411.75ZM414.69,112.37V114.6M414.69,97.08V86.59" style="vector-effect: non-scaling-stroke; stroke-width: 2px; stroke: rgb(38, 166, 154); stroke-opacity: 1; fill: rgb(38, 166, 154); fill-opacity: 1; opacity: 1;"/><path class="box" d="M423.77,92.05H429.65M423.77,97.05H429.65V91.05H423.77ZM426.71,97.05V118.84M426.71,91.05V70.79" style="vector-effect: non-scaling-stroke; stroke-width: 2px; stroke: rgb(38, 166, 154); stroke-opacity: 1; fill: rgb(38, 166, 154); fill-opacity: 1; opacity: 1;"/><path class="box" d="M435.79,101.35H441.67M435.79,102.35H441.67V91.05H435.79ZM438.73,102.35V107.87M438.73,91.05V87.5" style="vector-effect: non-scaling-stroke; stroke-width: 2px; stroke: rgb(238, 83, 79); stroke-opacity: 1; fill: rgb(238, 83, 79); fill-opacity: 1; opacity: 1;"/><path class="box" d="M447.81,101.91H453.69M447.81,102.2H453.69V101.91H447.81ZM450.75,102.2V109.52M450.75,101.91V98.84" style="vector-effect: non-scaling-stroke; stroke-width: 2px; stroke: rgb(38, 166, 154); stroke-opacity: 1; fill: rgb(38, 166, 154); fill-opacity: 1; opacity: 1;"/><path class="box" d="M459.83,100.57H465.71M459.83,101.95H465.71V99.57H459.83ZM462.77,101.95V109.19M462.77,99.57V92" style="vector-effect: non-scaling-stroke; stroke-width: 2px; stroke: rgb(38, 166, 154); stroke-opacity: 1; fill: rgb(38, 166, 154); fill-opacity: 1; opacity: 1;"/><path class="box" d="M471.85,100.57H477.73M471.85,101.55H477.73V99.57H471.85ZM474.79,101.55V125.02M474.79,99.57V79.75" style="vector-effect: non-scaling-stroke; stroke-width: 2px; stroke: rgb(238, 83, 79); stroke-opacity: 1; fill: rgb(238, 83, 79); fill-opacity: 1; opacity: 1;"/><path class="box" d="M483.87,95.82H489.75M483.87,101.58H489.75V94.82H483.87ZM486.81,101.58V107.03M486.81,94.82V82.79" style="vector-effect: non-scaling-stroke; stroke-width: 2px; stroke: rgb(38, 166, 154); stroke-opacity: 1; fill: rgb(38, 166, 154); fill-opacity: 1; opacity: 1;"/><path class="box" d="M495.89,65.17H501.77M495.89,94.74H501.77V64.17H495.89ZM498.83,94.74V99.39M498.83,64.17V35.64" style="vector-effect: non-scaling-stroke; stroke-width: 2px; stroke: rgb(38, 166, 154); stroke-opacity: 1; fill: rgb(38, 166, 154); fill-opacity: 1; opacity: 1;"/><path class="box" d="M507.91,63.39H513.79M507.91,64.39H513.79V63H507.91ZM510.85,64.39V65.23M510.85,63V55.39" style="vector-effect: non-scaling-stroke; stroke-width: 2px; stroke: rgb(38, 166, 154); stroke-opacity: 1; fill: rgb(38, 166, 154); fill-opacity: 1; opacity: 1;"/><path class="box" d="M519.93,44.51H525.81M519.93,63H525.81V43.51H519.93ZM522.87,63V66.8M522.87,43.51V41.57" style="vector-effect: non-scaling-stroke; stroke-width: 2px; stroke: rgb(38, 166, 154); stroke-opacity: 1; fill: rgb(38, 166, 154); fill-opacity: 1; opacity: 1;"/><path class="box" d="M531.95,29.81H537.83M531.95,43.51H537.83V28.81H531.95ZM534.89,43.51V45.85M534.89,28.81V19.59" style="vector-effect: non-scaling-stroke; stroke-width: 2px; stroke: rgb(38, 166, 154); stroke-opacity: 1; fill: rgb(38, 166, 154); fill-opacity: 1; opacity: 1;"/><path class="box" d="M543.97,86.47H549.85M543.97,87.47H549.85V28.66H543.97ZM546.91,87.47V98.18M546.91,28.66V26.14" style="vector-effect: non-scaling-stroke; stroke-width: 2px; stroke: rgb(238, 83, 79); stroke-opacity: 1; fill: rgb(238, 83, 79); fill-opacity: 1; opacity: 1;"/><path class="box" d="M555.99,88.53H561.87M555.99,88.53H561.87V87.91H555.99ZM558.93,88.53V109.45M558.93,87.91V71.12" style="vector-effect: non-scaling-stroke; stroke-width: 2px; stroke: rgb(238, 83, 79); stroke-opacity: 1; fill: rgb(238, 83, 79); fill-opacity: 1; opacity: 1;"/><path class="box" d="M568.01,100.77H573.89M568.01,101.77H573.89V88.6H568.01ZM570.95,101.77V102.53M570.95,88.6V81.47" style="vector-effect: non-scaling-stroke; stroke-width: 2px; stroke: rgb(238, 83, 79); stroke-opacity: 1; fill: rgb(238, 83, 79); fill-opacity: 1; opacity: 1;"/><path class="box" d="M580.03,95.23H585.91M580.03,101.77H585.91V94.23H580.03ZM582.97,101.77V104.69M582.97,94.23V94.2" style="vector-effect: non-scaling-stroke; stroke-width: 2px; stroke: rgb(38, 166, 154); stroke-opacity: 1; fill: rgb(38, 166, 154); fill-opacity: 1; opacity: 1;"/><path class="box" style="vector-effect: non-scaling-stroke;"/><path class="box" style="vector-effect: non-scaling-stroke;"/><path class="box" style="vector-effect: non-scaling-stroke;"/><path class="box" style="vector-effect: non-scaling-stroke;"/><path class="box" style="vector-effect: non-scaling-stroke;"/><path class="box" style="vector-effect: non-scaling-stroke;"/><path class="box" style="vector-effect: non-scaling-stroke;"/><path class="box" style="vector-effect: non-scaling-stroke;"/><path class="box" style="vector-effect: non-scaling-stroke;"/><path class="box" style="vector-effect: non-scaling-stroke;"/><path class="box" style="vector-effect: non-scaling-stroke;"/><path class="box" d="M724.27,102.59H730.15M724.27,103.59H730.15V101.84H724.27ZM727.21,103.59V104.73M727.21,101.84V94.56" style="vector-effect: non-scaling-stroke; stroke-width: 2px; stroke: rgb(38, 166, 154); stroke-opacity: 1; fill: rgb(38, 166, 154); fill-opacity: 1; opacity: 1;"/><path class="box" d="M736.29,89.38H742.17M736.29,101.8H742.17V88.38H736.29ZM739.23,101.8V105.61M739.23,88.38V87.91" style="vector-effect: non-scaling-stroke; stroke-width: 2px; stroke: rgb(38, 166, 154); stroke-opacity: 1; fill: rgb(38, 166, 154); fill-opacity: 1; opacity: 1;"/><path class="box" d="M748.31,133.86H754.19M748.31,134.86H754.19V88.38H748.31ZM751.25,134.86V135.89M751.25,88.38V86.66" style="vector-effect: non-scaling-stroke; stroke-width: 2px; stroke: rgb(238, 83, 79); stroke-opacity: 1; fill: rgb(238, 83, 79); fill-opacity: 1; opacity: 1;"/><path class="box" d="M760.33,126.76H766.21M760.33,134.94H766.21V125.76H760.33ZM763.27,134.94V137.61M763.27,125.76V113.07" style="vector-effect: non-scaling-stroke; stroke-width: 2px; stroke: rgb(38, 166, 154); stroke-opacity: 1; fill: rgb(38, 166, 154); fill-opacity: 1; opacity: 1;"/><path class="box" d="M772.35,132.62H778.23M772.35,133.62H778.23V125.68H772.35ZM775.29,133.62V143.6M775.29,125.68V117.82" style="vector-effect: non-scaling-stroke; stroke-width: 2px; stroke: rgb(238, 83, 79); stroke-opacity: 1; fill: rgb(238, 83, 79); fill-opacity: 1; opacity: 1;"/><path class="box" d="M784.37,126.76H790.25M784.37,133.62H790.25V125.76H784.37ZM787.31,133.62V140.02M787.31,125.76V122.83" style="vector-effect: non-scaling-stroke; stroke-width: 2px; stroke: rgb(38, 166, 154); stroke-opacity: 1; fill: rgb(38, 166, 154); fill-opacity: 1; opacity: 1;"/><path class="box" d="M796.39,127.78999999999999H802.27M796.39,128.79H802.27V125.76H796.39ZM799.33,128.79V132.12M799.33,125.76V121.99" style="vector-effect: non-scaling-stroke; stroke-width: 2px; stroke: rgb(238, 83, 79); stroke-opacity: 1; fill: rgb(238, 83, 79); fill-opacity: 1; opacity: 1;"/><path class="box" d="M808.41,133.28H814.29M808.41,134.28H814.29V128.94H808.41ZM811.35,134.28V135.26M811.35,128.94V124.77" style="vector-effect: non-scaling-stroke; stroke-width: 2px; stroke: rgb(238, 83, 79); stroke-opacity: 1; fill: rgb(238, 83, 79); fill-opacity: 1; opacity: 1;"/><path class="box" d="M820.43,135.65H826.31M820.43,136.65H826.31V134.24H820.43ZM823.37,136.65V141.45M823.37,134.24V120.23" style="vector-effect: non-scaling-stroke; stroke-width: 2px; stroke: rgb(238, 83, 79); stroke-opacity: 1; fill: rgb(238, 83, 79); fill-opacity: 1; opacity: 1;"/><path class="box" d="M832.45,100.17H838.33M832.45,136.91H838.33V99.17H832.45ZM835.39,136.91V142.51M835.39,99.17V87.25" style="vector-effect: non-scaling-stroke; stroke-width: 2px; stroke: rgb(38, 166, 154); stroke-opacity: 1; fill: rgb(38, 166, 154); fill-opacity: 1; opacity: 1;"/><path class="box" d="M844.47,98.69H850.35M844.47,99.06H850.35V98.69H844.47ZM847.41,99.06V107.07M847.41,98.69V77.59" style="vector-effect: non-scaling-stroke; stroke-width: 2px; stroke: rgb(38, 166, 154); stroke-opacity: 1; fill: rgb(38, 166, 154); fill-opacity: 1; opacity: 1;"/><path class="box" d="M856.49,82.51H862.37M856.49,98.77H862.37V81.51H856.49ZM859.43,98.77V104.18M859.43,81.51V79.57" style="vector-effect: non-scaling-stroke; stroke-width: 2px; stroke: rgb(38, 166, 154); stroke-opacity: 1; fill: rgb(38, 166, 154); fill-opacity: 1; opacity: 1;"/><path class="box" d="M868.51,89.61H874.39M868.51,90.61H874.39V81.58H868.51ZM871.45,90.61V91.27M871.45,81.58V81.18" style="vector-effect: non-scaling-stroke; stroke-width: 2px; stroke: rgb(238, 83, 79); stroke-opacity: 1; fill: rgb(238, 83, 79); fill-opacity: 1; opacity: 1;"/><path class="box" d="M880.53,104.24H886.41M880.53,105.24H886.41V90.65H880.53ZM883.47,105.24V105.35M883.47,90.65V89.08" style="vector-effect: non-scaling-stroke; stroke-width: 2px; stroke: rgb(238, 83, 79); stroke-opacity: 1; fill: rgb(238, 83, 79); fill-opacity: 1; opacity: 1;"/><path class="box" d="M892.55,122.93H898.43M892.55,123.93H898.43V105.24H892.55ZM895.49,123.93V127.8M895.49,105.24V92.95" style="vector-effect: non-scaling-stroke; stroke-width: 2px; stroke: rgb(238, 83, 79); stroke-opacity: 1; fill: rgb(238, 83, 79); fill-opacity: 1; opacity: 1;"/><path class="box" d="M904.57,165.53H910.45M904.57,166.53H910.45V124H904.57ZM907.51,166.53V168.91M907.51,124V118.08" style="vector-effect: non-scaling-stroke; stroke-width: 2px; stroke: rgb(238, 83, 79); stroke-opacity: 1; fill: rgb(238, 83, 79); fill-opacity: 1; opacity: 1;"/><path class="box" d="M916.59,179.83H922.47M916.59,180.83H922.47V167.01H916.59ZM919.53,180.83V186.21M919.53,167.01V157.79" style="vector-effect: non-scaling-stroke; stroke-width: 2px; stroke: rgb(238, 83, 79); stroke-opacity: 1; fill: rgb(238, 83, 79); fill-opacity: 1; opacity: 1;"/><path class="box" d="M928.61,185.21H934.49M928.61,186.21H934.49V180.76H928.61ZM931.55,186.21V191.4M931.55,180.76V178.2" style="vector-effect: non-scaling-stroke; stroke-width: 2px; stroke: rgb(238, 83, 79); stroke-opacity: 1; fill: rgb(238, 83, 79); fill-opacity: 1; opacity: 1;"/><path class="box" d="M940.63,184.28H946.51M940.63,185.66H946.51V183.28H940.63ZM943.57,185.66V191.22M943.57,183.28V181.6" style="vector-effect: non-scaling-stroke; stroke-width: 2px; stroke: rgb(38, 166, 154); stroke-opacity: 1; fill: rgb(38, 166, 154); fill-opacity: 1; opacity: 1;"/><path class="box" d="M952.65,171.81H958.53M952.65,183.25H958.53V170.81H952.65ZM955.59,183.25V185.84M955.59,170.81V167.23" style="vector-effect: non-scaling-stroke; stroke-width: 2px; stroke: rgb(38, 166, 154); stroke-opacity: 1; fill: rgb(38, 166, 154); fill-opacity: 1; opacity: 1;"/><path class="box" d="M964.67,192.16H970.55M964.67,193.16H970.55V170.78H964.67ZM967.61,193.16V193.78M967.61,170.78V170.78" style="vector-effect: non-scaling-stroke; stroke-width: 2px; stroke: rgb(238, 83, 79); stroke-opacity: 1; fill: rgb(238, 83, 79); fill-opacity: 1; opacity: 1;"/><path class="box" d="M976.69,192.38H982.57M976.69,193.38H982.57V191.88H976.69ZM979.63,193.38V224.17M979.63,191.88V188.4" style="vector-effect: non-scaling-stroke; stroke-width: 2px; stroke: rgb(38, 166, 154); stroke-opacity: 1; fill: rgb(38, 166, 154); fill-opacity: 1; opacity: 1;"/><path class="box" d="M988.71,194.57H994.59M988.71,195.57H994.59V191.88H988.71ZM991.65,195.57V205.45M991.65,191.88V178.13" style="vector-effect: non-scaling-stroke; stroke-width: 2px; stroke: rgb(238, 83, 79); stroke-opacity: 1; fill: rgb(238, 83, 79); fill-opacity: 1; opacity: 1;"/><path class="box" d="M1000.73,211.58H1006.61M1000.73,212.58H1006.61V195.61H1000.73ZM1003.67,212.58V213.56M1003.67,195.61V186.83" style="vector-effect: non-scaling-stroke; stroke-width: 2px; stroke: rgb(238, 83, 79); stroke-opacity: 1; fill: rgb(238, 83, 79); fill-opacity: 1; opacity: 1;"/><path class="box" d="M1012.75,206.26H1018.63M1012.75,212.54H1018.63V205.26H1012.75ZM1015.69,212.54V215.1M1015.69,205.26V203.36" style="vector-effect: non-scaling-stroke; stroke-width: 2px; stroke: rgb(38, 166, 154); stroke-opacity: 1; fill: rgb(38, 166, 154); fill-opacity: 1; opacity: 1;"/><path class="box" d="M1024.77,204.1H1030.65M1024.77,205.23H1030.65V203.1H1024.77ZM1027.71,205.23V215.79M1027.71,203.1V201.42" style="vector-effect: non-scaling-stroke; stroke-width: 2px; stroke: rgb(38, 166, 154); stroke-opacity: 1; fill: rgb(38, 166, 154); fill-opacity: 1; opacity: 1;"/><path class="box" d="M1036.79,240.39H1042.67M1036.79,241.39H1042.67V203.21H1036.79ZM1039.73,241.39V247.36M1039.73,203.21V199.34" style="vector-effect: non-scaling-stroke; stroke-width: 2px; stroke: rgb(238, 83, 79); stroke-opacity: 1; fill: rgb(238, 83, 79); fill-opacity: 1; opacity: 1;"/><path class="box" d="M1048.81,221.26H1054.69M1048.81,241.43H1054.69V220.26H1048.81ZM1051.75,241.43V242.71M1051.75,220.26V217.88" style="vector-effect: non-scaling-stroke; stroke-width: 2px; stroke: rgb(38, 166, 154); stroke-opacity: 1; fill: rgb(38, 166, 154); fill-opacity: 1; opacity: 1;"/><path class="box" d="M1060.83,219.03H1066.71M1060.83,220.33H1066.71V218.03H1060.83ZM1063.77,220.33V227.9M1063.77,218.03V203.36" style="vector-effect: non-scaling-stroke; stroke-width: 2px; stroke: rgb(38, 166, 154); stroke-opacity: 1; fill: rgb(38, 166, 154); fill-opacity: 1; opacity: 1;"/><path class="box" d="M1072.85,228.69H1078.73M1072.85,229.69H1078.73V217.95H1072.85ZM1075.79,229.69V235.07M1075.79,217.95V215.17" style="vector-effect: non-scaling-stroke; stroke-width: 2px; stroke: rgb(238, 83, 79); stroke-opacity: 1; fill: rgb(238, 83, 79); fill-opacity: 1; opacity: 1;"/><path class="box" d="M1084.87,232.86H1090.75M1084.87,233.86H1090.75V229.73H1084.87ZM1087.81,233.86V235.8M1087.81,229.73V229.44" style="vector-effect: non-scaling-stroke; stroke-width: 2px; stroke: rgb(238, 83, 79); stroke-opacity: 1; fill: rgb(238, 83, 79); fill-opacity: 1; opacity: 1;"/><path class="box" style="vector-effect: non-scaling-stroke;"/><path class="box" style="vector-effect: non-scaling-stroke;"/><path class="box" style="vector-effect: non-scaling-stroke;"/><path class="box" style="vector-effect: non-scaling-stroke;"/><path class="box" style="vector-effect: non-scaling-stroke;"/><path class="box" style="vector-effect: non-scaling-stroke;"/><path class="box" style="vector-effect: non-scaling-stroke;"/><path class="box" style="vector-effect: non-scaling-stroke;"/><path class="box" style="vector-effect: non-scaling-stroke;"/></g></g><g class="scatterlayer mlayer"><g class="trace scatter trace2312bdb1-3a4c-4279-b257-dae4122263c3" style="stroke-miterlimit: 2; opacity: 1;"><g class="fills"/><g class="errorbars"/><g class="lines"><path class="js-line" d="M6.01,220.8L18.03,215.79L30.05,228.6L42.07,243.82L54.09,235.09L66.11,207.28L78.13,154.08" style="vector-effect: non-scaling-stroke; fill: none; stroke: rgb(127, 127, 127); stroke-opacity: 0.75; stroke-width: 2px; opacity: 1;"/><path class="js-line" d="M222.37,122.37L234.39,113.53L246.41,114.65L258.43,133.9L270.45,149.04L282.47,149.25L294.49,148.46L306.51,147.04L318.53,156.55L330.55,156.67L342.57,179.77L354.59,184.41L366.61,173.08L378.63,140.4L390.65,103.08L402.67,118.17L414.69,117.82L426.71,113.81L438.73,114.56L450.75,115.02L462.77,106.64L474.79,107.74L486.81,105.6L498.83,121.09L510.85,119.26L522.87,116.65L534.89,103.38L546.91,97.31L558.93,109.56L570.95,126.98L582.97,132.51" style="vector-effect: non-scaling-stroke; fill: none; stroke: rgb(127, 127, 127); stroke-opacity: 0.75; stroke-width: 2px; opacity: 1;"/><path class="js-line" d="M727.21,107.14L739.23,106.91L751.25,136.48L775.29,153.99L787.31,155.83L799.33,137.45L811.35,137.03L823.37,139.75L835.39,151.82L847.41,153.52L859.43,153.48L871.45,138.93L883.47,111.47L895.49,128.73L907.51,173.81L919.53,203.06L931.55,216.96L943.57,214.41L955.59,192.64L967.61,197.47L979.63,201.06L991.65,205.07L1003.67,219.38L1015.69,215.63L1027.71,216.29L1039.73,243.3L1051.75,244.16L1063.77,244.97L1075.79,247.95L1087.81,245.94" style="vector-effect: non-scaling-stroke; fill: none; stroke: rgb(127, 127, 127); stroke-opacity: 0.75; stroke-width: 2px; opacity: 1;"/></g><g class="points"/><g class="text"/></g><g class="trace scatter tracead8a6dbd-7af3-4d00-bd1a-38e40a721467" style="stroke-miterlimit: 2; opacity: 1;"><g class="fills"/><g class="errorbars"/><g class="lines"><path class="js-line" d="M6.01,183.05L18.03,182.37L30.05,144.06L42.07,100.49L54.09,72.7L66.11,52.64L78.13,58.61" style="vector-effect: non-scaling-stroke; fill: none; stroke: rgb(127, 127, 127); stroke-opacity: 0.75; stroke-width: 2px; opacity: 1;"/><path class="js-line" d="M222.37,64.9L234.39,68.56L246.41,68L258.43,64.84L270.45,73.07L282.47,93.35L294.49,107.33L306.51,122.92L318.53,125.05L330.55,125.81L342.57,83.31L354.59,56.12L366.61,41.25L378.63,48.79L390.65,70.26L402.67,66.04L414.69,74.07L426.71,82.99L438.73,86.45L450.75,86.9L462.77,90.14L474.79,90.83L486.81,94.48L498.83,63.72L510.85,49.98L522.87,30.16L534.89,14.34L546.91,17.47L558.93,14.96L570.95,13.05L582.97,27.81" style="vector-effect: non-scaling-stroke; fill: none; stroke: rgb(127, 127, 127); stroke-opacity: 0.75; stroke-width: 2px; opacity: 1;"/><path class="js-line" d="M727.21,82.39L739.23,82.99L751.25,71.95L763.27,72.75L775.29,79.79L787.31,87.52L799.33,122.07L811.35,122.25L823.37,123.89L835.39,98.04L847.41,85.51L859.43,66.64L871.45,63.72L883.47,78.62L895.49,71.26L907.51,53.32L919.53,63.79L931.55,88.14L943.57,121.9L955.59,162.42L967.61,168.25L979.63,169.08L991.65,168.81L1003.67,166.22L1015.69,183.74L1027.71,187.06L1039.73,179.86L1051.75,188.88L1063.77,190.25L1075.79,197.04L1087.81,211.35" style="vector-effect: non-scaling-stroke; fill: none; stroke: rgb(127, 127, 127); stroke-opacity: 0.75; stroke-width: 2px; opacity: 1;"/></g><g class="points"/><g class="text"/></g><g class="trace scatter trace2e6addb9-e118-42d3-a3d5-87de8e6564ba" style="stroke-miterlimit: 2; opacity: 1;"><g class="fills"/><g class="errorbars"/><g class="lines"><path class="js-line" d="M6.01,201.93L18.03,199.08L30.05,186.33L42.07,172.16L54.09,153.89L78.13,106.34" style="vector-effect: non-scaling-stroke; fill: none; stroke: rgb(220, 57, 18); stroke-opacity: 1; stroke-width: 2px; opacity: 1;"/><path class="js-line" d="M222.37,93.63L234.39,91.04L246.41,91.33L258.43,99.37L270.45,111.05L282.47,121.3L294.49,127.89L306.51,134.98L318.53,140.8L330.55,141.24L342.57,131.54L354.59,120.26L366.61,107.16L378.63,94.6L390.65,86.67L402.67,92.1L414.69,95.94L438.73,100.51L450.75,100.96L462.77,98.39L474.79,99.29L486.81,100.04L498.83,92.4L510.85,84.62L522.87,73.41L534.89,58.86L546.91,57.39L558.93,62.26L570.95,70.01L582.97,80.16" style="vector-effect: non-scaling-stroke; fill: none; stroke: rgb(220, 57, 18); stroke-opacity: 1; stroke-width: 2px; opacity: 1;"/><path class="js-line" d="M727.21,94.77L739.23,94.95L751.25,104.22L763.27,109.01L775.29,116.89L787.31,121.67L799.33,129.76L811.35,129.64L823.37,131.82L835.39,124.93L847.41,119.52L871.45,101.33L883.47,95.04L895.49,100L907.51,113.56L931.55,152.55L943.57,168.16L955.59,177.53L967.61,182.86L991.65,186.94L1003.67,192.8L1015.69,199.69L1027.71,201.68L1039.73,211.58L1051.75,216.52L1063.77,217.61L1075.79,222.49L1087.81,228.65" style="vector-effect: non-scaling-stroke; fill: none; stroke: rgb(220, 57, 18); stroke-opacity: 1; stroke-width: 2px; opacity: 1;"/></g><g class="points"/><g class="text"/></g></g></g><g class="overplot"/><path class="xlines-above crisp" d="M0,0" style="fill: none;"/><path class="ylines-above crisp" d="M0,0" style="fill: none;"/><g class="overlines-above"/><g class="xaxislayer-above"><g class="xtick"><text text-anchor="middle" x="0" y="320" transform="translate(78.05,0)" style="font-family: 'Open Sans', verdana, arial, sans-serif; font-size: 12px; fill: rgb(214, 223, 239); fill-opacity: 1; white-space: pre; opacity: 1;"><tspan class="line" dy="0em" x="0" y="320">Sep 13</tspan><tspan class="line" dy="1.3em" x="0" y="320">2019</tspan></text></g><g class="xtick"><text text-anchor="middle" x="0" y="320" style="font-family: 'Open Sans', verdana, arial, sans-serif; font-size: 12px; fill: rgb(214, 223, 239); fill-opacity: 1; white-space: pre; opacity: 1;" transform="translate(222.29,0)">Sep 15</text></g><g class="xtick"><text text-anchor="middle" x="0" y="320" style="font-family: 'Open Sans', verdana, arial, sans-serif; font-size: 12px; fill: rgb(214, 223, 239); fill-opacity: 1; white-space: pre; opacity: 1;" transform="translate(366.53,0)">Sep 17</text></g><g class="xtick"><text text-anchor="middle" x="0" y="320" style="font-family: 'Open Sans', verdana, arial, sans-serif; font-size: 12px; fill: rgb(214, 223, 239); fill-opacity: 1; white-space: pre; opacity: 1;" transform="translate(510.77,0)">Sep 19</text></g><g class="xtick"><text text-anchor="middle" x="0" y="320" style="font-family: 'Open Sans', verdana, arial, sans-serif; font-size: 12px; fill: rgb(214, 223, 239); fill-opacity: 1; white-space: pre; opacity: 1;" transform="translate(655.01,0)">Sep 21</text></g><g class="xtick"><text text-anchor="middle" x="0" y="320" style="font-family: 'Open Sans', verdana, arial, sans-serif; font-size: 12px; fill: rgb(214, 223, 239); fill-opacity: 1; white-space: pre; opacity: 1;" transform="translate(799.25,0)">Sep 23</text></g><g class="xtick"><text text-anchor="middle" x="0" y="320" style="font-family: 'Open Sans', verdana, arial, sans-serif; font-size: 12px; fill: rgb(214, 223, 239); fill-opacity: 1; white-space: pre; opacity: 1;" transform="translate(943.49,0)">Sep 25</text></g><g class="xtick"><text text-anchor="middle" x="0" y="320" style="font-family: 'Open Sans', verdana, arial, sans-serif; font-size: 12px; fill: rgb(214, 223, 239); fill-opacity: 1; white-space: pre; opacity: 1;" transform="translate(1087.73,0)">Sep 27</text></g><g class="xtick"><text text-anchor="middle" x="0" y="320" style="font-family: 'Open Sans', verdana, arial, sans-serif; font-size: 12px; fill: rgb(214, 223, 239); fill-opacity: 1; white-space: pre; opacity: 1;" transform="translate(1231.97,0)">Sep 29</text></g></g><g class="yaxislayer-above"><g class="ytick"><text text-anchor="end" x="47" y="4.199999999999999" transform="translate(0,272.18)" style="font-family: 'Open Sans', verdana, arial, sans-serif; font-size: 12px; fill: rgb(214, 223, 239); fill-opacity: 1; white-space: pre; opacity: 1;">1.23</text></g><g class="ytick"><text text-anchor="end" x="47" y="4.199999999999999" style="font-family: 'Open Sans', verdana, arial, sans-serif; font-size: 12px; fill: rgb(214, 223, 239); fill-opacity: 1; white-space: pre; opacity: 1;" transform="translate(0,235.61)">1.235</text></g><g class="ytick"><text text-anchor="end" x="47" y="4.199999999999999" style="font-family: 'Open Sans', verdana, arial, sans-serif; font-size: 12px; fill: rgb(214, 223, 239); fill-opacity: 1; white-space: pre; opacity: 1;" transform="translate(0,199.04)">1.24</text></g><g class="ytick"><text text-anchor="end" x="47" y="4.199999999999999" style="font-family: 'Open Sans', verdana, arial, sans-serif; font-size: 12px; fill: rgb(214, 223, 239); fill-opacity: 1; white-space: pre; opacity: 1;" transform="translate(0,162.47)">1.245</text></g><g class="ytick"><text text-anchor="end" x="47" y="4.199999999999999" style="font-family: 'Open Sans', verdana, arial, sans-serif; font-size: 12px; fill: rgb(214, 223, 239); fill-opacity: 1; white-space: pre; opacity: 1;" transform="translate(0,125.9)">1.25</text></g><g class="ytick"><text text-anchor="end" x="47" y="4.199999999999999" style="font-family: 'Open Sans', verdana, arial, sans-serif; font-size: 12px; fill: rgb(214, 223, 239); fill-opacity: 1; white-space: pre; opacity: 1;" transform="translate(0,89.32)">1.255</text></g><g class="ytick"><text text-anchor="end" x="47" y="4.199999999999999" style="font-family: 'Open Sans', verdana, arial, sans-serif; font-size: 12px; fill: rgb(214, 223, 239); fill-opacity: 1; white-space: pre; opacity: 1;" transform="translate(0,52.75)">1.26</text></g></g><g class="overaxes-above"/></g></g><g class="polarlayer"/><g class="smithlayer"/><g class="ternarylayer"/><g class="geolayer"/><g class="funnelarealayer"/><g class="pielayer"/><g class="iciclelayer"/><g class="treemaplayer"/><g class="sunburstlayer"/><g class="glimages"/><defs id="topdefs-981c16"><g class="clips"/><clipPath id="legend981c16"><rect width="507" height="29" x="0" y="0"/></clipPath></defs><g class="layer-above"><g class="imagelayer"/><g class="shapelayer"/></g><g class="infolayer"><g class="legend" pointer-events="all" transform="translate(743,11.779999999999994)"><rect class="bg" shape-rendering="crispEdges" style="stroke: rgb(68, 68, 68); stroke-opacity: 1; fill: rgb(33, 34, 44); fill-opacity: 1; stroke-width: 0px;" width="507" height="29" x="0" y="0"/><g class="scrollbox" transform="" clip-path="url(#legend981c16)"><g class="groups"><g class="traces" transform="translate(0,14.5)" style="opacity: 1;"><text class="legendtext" text-anchor="start" x="40" y="4.680000000000001" style="font-family: 'Open Sans', verdana, arial, sans-serif; font-size: 12px; fill: rgb(214, 223, 239); fill-opacity: 1; white-space: pre;">OHLC</text><g class="layers" style="opacity: 0.75;"><g class="legendfill"/><g class="legendlines"/><g class="legendsymbols"><g class="legendpoints"><path class="legendcandle" d="M15,0H8M8,-6V6H-8Z" transform="translate(20,0)" style="stroke-miterlimit: 1; stroke-width: 2px; fill: rgb(238, 83, 79); fill-opacity: 1; stroke: rgb(238, 83, 79); stroke-opacity: 1;"/><path class="legendcandle" d="M-15,0H-8M-8,6V-6H8Z" transform="translate(20,0)" style="stroke-miterlimit: 1; stroke-width: 2px; fill: rgb(38, 166, 154); fill-opacity: 1; stroke: rgb(38, 166, 154); stroke-opacity: 1;"/></g></g></g><rect class="legendtoggle" x="0" y="-9.5" width="76.03125" height="19" style="fill: rgb(0, 0, 0); fill-opacity: 0;"/></g><g class="traces" transform="translate(78.53125,14.5)" style="opacity: 1;"><text class="legendtext" text-anchor="start" x="40" y="4.680000000000001" style="font-family: 'Open Sans', verdana, arial, sans-serif; font-size: 12px; fill: rgb(214, 223, 239); fill-opacity: 1; white-space: pre;">BB_Price_Lower</text><g class="layers" style="opacity: 1;"><g class="legendfill"/><g class="legendlines"><path class="js-line" d="M5,0h30" style="fill: none; stroke: rgb(127, 127, 127); stroke-opacity: 0.75; stroke-width: 2px;"/></g><g class="legendsymbols"><g class="legendpoints"/></g></g><rect class="legendtoggle" x="0" y="-9.5" width="139.375" height="19" style="fill: rgb(0, 0, 0); fill-opacity: 0;"/></g><g class="traces" transform="translate(220.40625,14.5)" style="opacity: 1;"><text class="legendtext" text-anchor="start" x="40" y="4.680000000000001" style="font-family: 'Open Sans', verdana, arial, sans-serif; font-size: 12px; fill: rgb(214, 223, 239); fill-opacity: 1; white-space: pre;">BB_Price_Upper</text><g class="layers" style="opacity: 1;"><g class="legendfill"/><g class="legendlines"><path class="js-line" d="M5,0h30" style="fill: none; stroke: rgb(127, 127, 127); stroke-opacity: 0.75; stroke-width: 2px;"/></g><g class="legendsymbols"><g class="legendpoints"/></g></g><rect class="legendtoggle" x="0" y="-9.5" width="139.328125" height="19" style="fill: rgb(0, 0, 0); fill-opacity: 0;"/></g><g class="traces" transform="translate(362.234375,14.5)" style="opacity: 1;"><text class="legendtext" text-anchor="start" x="40" y="4.680000000000001" style="font-family: 'Open Sans', verdana, arial, sans-serif; font-size: 12px; fill: rgb(214, 223, 239); fill-opacity: 1; white-space: pre;">BB_Price_Middle</text><g class="layers" style="opacity: 1;"><g class="legendfill"/><g class="legendlines"><path class="js-line" d="M5,0h30" style="fill: none; stroke: rgb(220, 57, 18); stroke-opacity: 1; stroke-width: 2px;"/></g><g class="legendsymbols"><g class="legendpoints"/></g></g><rect class="legendtoggle" x="0" y="-9.5" width="142.0625" height="19" style="fill: rgb(0, 0, 0); fill-opacity: 0;"/></g></g></g><rect class="scrollbar" rx="20" ry="3" width="0" height="0" style="fill: rgb(128, 139, 164); fill-opacity: 1;" x="0" y="0"/></g><g class="g-gtitle"><text class="gtitle" x="64" y="23" text-anchor="start" dy="0em" style="font-family: 'Open Sans', verdana, arial, sans-serif; font-size: 18px; fill: rgb(214, 223, 239); opacity: 1; font-weight: normal; white-space: pre;">OHLCV Plot</text></g><g class="g-xtitle"/><g class="g-ytitle"/></g></svg>