<svg class="main-svg" xmlns="http://www.w3.org/2000/svg" xmlns:xlink="http://www.w3.org/1999/xlink" width="1280" height="350" style="" viewBox="0 0 1280 350"><rect x="0" y="0" width="1280" height="350" style="fill: rgb(33, 34, 44); fill-opacity: 1;"/><defs id="defs-48396e"><g class="clips"><clipPath id="clip48396exyplot" class="plotclip"><rect width="1202" height="261"/></clipPath><clipPath class="axesclip" id="clip48396ex"><rect x="48" y="0" width="1202" height="350"/></clipPath><clipPath class="axesclip" id="clip48396ey"><rect x="0" y="46" width="1280" height="261"/></clipPath><clipPath class="axesclip" id="clip48396exy"><rect x="48" y="46" width="1202" height="261"/></clipPath></g><g class="gradients"/><g class="patterns"/></defs><g class="bglayer"/><g class="layer-below"><g class="imagelayer"/><g class="shapelayer"/></g><g class="cartesianlayer"><g class="subplot xy"><g class="layer-subplot"><g class="shapelayer"/><g class="imagelayer"/></g><g class="minor-gridlayer"><g class="x"/><g class="y"/></g><g class="gridlayer"><g class="x"><path class="xgrid crisp" transform="translate(78.05,0)" d="M0,46v261" style="stroke: rgb(47, 62, 78); stroke-opacity: 1; stroke-width: 1px;"/><path class="xgrid crisp" transform="translate(222.29,0)" d="M0,46v261" style="stroke: rgb(47, 62, 78); stroke-opacity: 1; stroke-width: 1px;"/><path class="xgrid crisp" transform="translate(366.53,0)" d="M0,46v261" style="stroke: rgb(47, 62, 78); stroke-opacity: 1; stroke-width: 1px;"/><path class="xgrid crisp" transform="translate(510.77,0)" d="M0,46v261" style="stroke: rgb(47, 62, 78); stroke-opacity: 1; stroke-width: 1px;"/><path class="xgrid crisp" transform="translate(655.01,0)" d="M0,46v261" style="stroke: rgb(47, 62, 78); stroke-opacity: 1; stroke-width: 1px;"/><path class="xgrid crisp" transform="translate(799.25,0)" d="M0,46v261" style="stroke: rgb(47, 62, 78); stroke-opacity: 1; stroke-width: 1px;"/><path class="xgrid crisp" transform="translate(943.49,0)" d="M0,46v261" style="stroke: rgb(47, 62, 78); stroke-opacity: 1; stroke-width: 1px;"/><path class="xgrid crisp" transform="translate(1087.73,0)" d="M0,46v261" style="stroke: rgb(47, 62, 78); stroke-opacity: 1; stroke-width: 1px;"/><path class="xgrid crisp" transform="translate(1231.97,0)" d="M0,46v261" style="stroke: rgb(47, 62, 78); stroke-opacity: 1; stroke-width: 1px;"/></g><g class="y"><path class="ygrid crisp" transform="translate(0,272.11)" d="M48,0h1202" style="stroke: rgb(47, 62, 78); stroke-opacity: 1; stroke-width: 1px;"/><path class="ygrid crisp" transform="translate(0,234.4)" d="M48,0h1202" style="stroke: rgb(47, 62, 78); stroke-opacity: 1; stroke-width: 1px;"/><path class="ygrid crisp" transform="translate(0,196.68)" d="M48,0h1202" style="stroke: rgb(47, 62, 78); stroke-opacity: 1; stroke-width: 1px;"/><path class="ygrid crisp" transform="translate(0,158.95999999999998)" d="M48,0h1202" style="stroke: rgb(47, 62, 78); stroke-opacity: 1; stroke-width: 1px;"/><path class="ygrid crisp" transform="translate(0,121.24)" d="M48,0h1202" style="stroke: rgb(47, 62, 78); stroke-opacity: 1; stroke-width: 1px;"/><path class="ygrid crisp" transform="translate(0,83.53)" d="M48,0h1202" style="stroke: rgb(47, 62, 78); stroke-opacity: 1; stroke-width: 1px;"/></g></g><g class="zerolinelayer"/><path class="xlines-below"/><path class="ylines-below"/><g class="overlines-below"/><g class="xaxislayer-below"/><g class="yaxislayer-below"/><g class="overaxes-below"/><g class="plot" transform="translate(48,46)" clip-path="url(#clip48396exyplot)"><g class="boxlayer mlayer"><g class="trace boxes" style="opacity: 0.75;"><path class="box" d="M3.07,203.24H8.95M3.07,204.24H8.95V197.9H3.07ZM6.01,204.24V205.18M6.01,197.9V191.15" style="vector-effect: non-scaling-stroke; stroke-width: 2px; stroke: rgb(238, 83, 79); stroke-opacity: 1; fill: rgb(238, 83, 79); fill-opacity: 1; opacity: 1;"/><path class="box" d="M15.09,196.79H20.97M15.09,203.9H20.97V195.79H15.09ZM18.03,203.9V205.48M18.03,195.79V195.15" style="vector-effect: non-scaling-stroke; stroke-width: 2px; stroke: rgb(38, 166, 154); stroke-opacity: 1; fill: rgb(38, 166, 154); fill-opacity: 1; opacity: 1;"/><path class="box" d="M27.11,144.47H32.99M27.11,195.79H32.99V143.47H27.11ZM30.05,195.79V197.22M30.05,143.47V137.55" style="vector-effect: non-scaling-stroke; stroke-width: 2px; stroke: rgb(38, 166, 154); stroke-opacity: 1; fill: rgb(38, 166, 154); fill-opacity: 1; opacity: 1;"/><path class="box" d="M39.13,111.7H45.01M39.13,143.14H45.01V110.7H39.13ZM42.07,143.14V156.52M42.07,110.7V93.27" style="vector-effect: non-scaling-stroke; stroke-width: 2px; stroke: rgb(38, 166, 154); stroke-opacity: 1; fill: rgb(38, 166, 154); fill-opacity: 1; opacity: 1;"/><path class="box" d="M51.15,104.61H57.03M51.15,110.74H57.03V103.61H51.15ZM54.09,110.74V130.5M54.09,103.61V102.4" style="vector-effect: non-scaling-stroke; stroke-width: 2px; stroke: rgb(38, 166, 154); stroke-opacity: 1; fill: rgb(38, 166, 154); fill-opacity: 1; opacity: 1;"/><path class="box" d="M63.17,81.83H69.05M63.17,103.99H69.05V80.83H63.17ZM66.11,103.99V108.96M66.11,80.83V78.41" style="vector-effect: non-scaling-stroke; stroke-width: 2px; stroke: rgb(38, 166, 154); stroke-opacity: 1; fill: rgb(38, 166, 154); fill-opacity: 1; opacity: 1;"/><path class="box" d="M75.19,75H81.07M75.19,80.75H81.07V74H75.19ZM78.13,80.75V83.32M78.13,74V70.23" style="vector-effect: non-scaling-stroke; stroke-width: 2px; stroke: rgb(38, 166, 154); stroke-opacity: 1; fill: rgb(38, 166, 154); fill-opacity: 1; opacity: 1;"/><path class="box" style="vector-effect: non-scaling-stroke;"/><path class="box" style="vector-effect: non-scaling-stroke;"/><path class="box" style="vector-effect: non-scaling-stroke;"/><path class="box" style="vector-effect: non-scaling-stroke;"/><path class="box" style="vector-effect: non-scaling-stroke;"/><path class="box" style="vector-effect: non-scaling-stroke;"/><path class="box" style="vector-effect: non-scaling-stroke;"/><path class="box" style="vector-effect: non-scaling-stroke;"/><path class="box" style="vector-effect: non-scaling-stroke;"/><path class="box" style="vector-effect: non-scaling-stroke;"/><path class="box" style="vector-effect: non-scaling-stroke;"/><path class="box" d="M219.43,78.92H225.31M219.43,91.65H225.31V77.92H219.43ZM222.37,91.65V91.65M222.37,77.92V71.47" style="vector-effect: non-scaling-stroke; stroke-width: 2px; stroke: rgb(38, 166, 154); stroke-opacity: 1; fill: rgb(38, 166, 154); fill-opacity: 1; opacity: 1;"/><path class="box" d="M231.45,96.35H237.33M231.45,97.35H237.33V78.22H231.45ZM234.39,97.35V97.8M234.39,78.22V76.75" style="vector-effect: non-scaling-stroke; stroke-width: 2px; stroke: rgb(238, 83, 79); stroke-opacity: 1; fill: rgb(238, 83, 79); fill-opacity: 1; opacity: 1;"/><path class="box" d="M243.47,104.08H249.35M243.47,105.08H249.35V97.35H243.47ZM246.41,105.08V115.45M246.41,97.35V90.48" style="vector-effect: non-scaling-stroke; stroke-width: 2px; stroke: rgb(238, 83, 79); stroke-opacity: 1; fill: rgb(238, 83, 79); fill-opacity: 1; opacity: 1;"/><path class="box" d="M255.49,121.32H261.37M255.49,122.32H261.37V105.08H255.49ZM258.43,122.32V131.29M258.43,105.08V103.65" style="vector-effect: non-scaling-stroke; stroke-width: 2px; stroke: rgb(238, 83, 79); stroke-opacity: 1; fill: rgb(238, 83, 79); fill-opacity: 1; opacity: 1;"/><path class="box" d="M267.51,133.23H273.39M267.51,134.23H273.39V122.09H267.51ZM270.45,134.23V151.13M270.45,122.09V99.27" style="vector-effect: non-scaling-stroke; stroke-width: 2px; stroke: rgb(238, 83, 79); stroke-opacity: 1; fill: rgb(238, 83, 79); fill-opacity: 1; opacity: 1;"/><path class="box" d="M279.53,131.76H285.41M279.53,134.2H285.41V130.76H279.53ZM282.47,134.2V139.48M282.47,130.76V127.37" style="vector-effect: non-scaling-stroke; stroke-width: 2px; stroke: rgb(38, 166, 154); stroke-opacity: 1; fill: rgb(38, 166, 154); fill-opacity: 1; opacity: 1;"/><path class="box" d="M291.55,131.33H297.43M291.55,131.33H297.43V130.88H291.55ZM294.49,131.33V134.42M294.49,130.88V126.54" style="vector-effect: non-scaling-stroke; stroke-width: 2px; stroke: rgb(238, 83, 79); stroke-opacity: 1; fill: rgb(238, 83, 79); fill-opacity: 1; opacity: 1;"/><path class="box" d="M303.57,140.63H309.45M303.57,141.63H309.45V131.37H303.57ZM306.51,141.63V144.79M306.51,131.37V128.5" style="vector-effect: non-scaling-stroke; stroke-width: 2px; stroke: rgb(238, 83, 79); stroke-opacity: 1; fill: rgb(238, 83, 79); fill-opacity: 1; opacity: 1;"/><path class="box" d="M315.59,151.34H321.47M315.59,152.34H321.47V141.55H315.59ZM318.53,152.34V155.92M318.53,141.55V130.99" style="vector-effect: non-scaling-stroke; stroke-width: 2px; stroke: rgb(238, 83, 79); stroke-opacity: 1; fill: rgb(238, 83, 79); fill-opacity: 1; opacity: 1;"/><path class="box" d="M327.61,137.5H333.49M327.61,152.34H333.49V136.5H327.61ZM330.55,152.34V156.3M330.55,136.5V135.4" style="vector-effect: non-scaling-stroke; stroke-width: 2px; stroke: rgb(38, 166, 154); stroke-opacity: 1; fill: rgb(38, 166, 154); fill-opacity: 1; opacity: 1;"/><path class="box" d="M339.63,81.75H345.51M339.63,136.5H345.51V80.75H339.63ZM342.57,136.5V142.15M342.57,80.75V79.05" style="vector-effect: non-scaling-stroke; stroke-width: 2px; stroke: rgb(38, 166, 154); stroke-opacity: 1; fill: rgb(38, 166, 154); fill-opacity: 1; opacity: 1;"/><path class="box" d="M351.65,74.17H357.53M351.65,80.75H357.53V73.17H351.65ZM354.59,80.75V84.6M354.59,73.17V54.46" style="vector-effect: non-scaling-stroke; stroke-width: 2px; stroke: rgb(38, 166, 154); stroke-opacity: 1; fill: rgb(38, 166, 154); fill-opacity: 1; opacity: 1;"/><path class="box" d="M363.67,74.08H369.55M363.67,74.08H369.55V73.55H363.67ZM366.61,74.08V80.03M366.61,73.55V68.46" style="vector-effect: non-scaling-stroke; stroke-width: 2px; stroke: rgb(238, 83, 79); stroke-opacity: 1; fill: rgb(238, 83, 79); fill-opacity: 1; opacity: 1;"/><path class="box" d="M375.69,86.54H381.57M375.69,87.54H381.57V74.15H375.69ZM378.63,87.54V87.77M378.63,74.15V70.04" style="vector-effect: non-scaling-stroke; stroke-width: 2px; stroke: rgb(238, 83, 79); stroke-opacity: 1; fill: rgb(238, 83, 79); fill-opacity: 1; opacity: 1;"/><path class="box" d="M387.71,94.61H393.59M387.71,95.61H393.59V87.5H387.71ZM390.65,95.61V104.4M390.65,87.5V77.32" style="vector-effect: non-scaling-stroke; stroke-width: 2px; stroke: rgb(238, 83, 79); stroke-opacity: 1; fill: rgb(238, 83, 79); fill-opacity: 1; opacity: 1;"/><path class="box" d="M399.73,107.78H405.61M399.73,108.78H405.61V95.61H399.73ZM402.67,108.78V121.03M402.67,95.61V91.58" style="vector-effect: non-scaling-stroke; stroke-width: 2px; stroke: rgb(238, 83, 79); stroke-opacity: 1; fill: rgb(238, 83, 79); fill-opacity: 1; opacity: 1;"/><path class="box" d="M411.75,93.97H417.63M411.75,108.74H417.63V92.97H411.75ZM414.69,108.74V111.04M414.69,92.97V82.15" style="vector-effect: non-scaling-stroke; stroke-width: 2px; stroke: rgb(38, 166, 154); stroke-opacity: 1; fill: rgb(38, 166, 154); fill-opacity: 1; opacity: 1;"/><path class="box" d="M423.77,87.75H429.65M423.77,92.93H429.65V86.75H423.77ZM426.71,92.93V115.41M426.71,86.75V65.85" style="vector-effect: non-scaling-stroke; stroke-width: 2px; stroke: rgb(38, 166, 154); stroke-opacity: 1; fill: rgb(38, 166, 154); fill-opacity: 1; opacity: 1;"/><path class="box" d="M435.79,97.4H441.67M435.79,98.4H441.67V86.75H435.79ZM438.73,98.4V104.1M438.73,86.75V83.09" style="vector-effect: non-scaling-stroke; stroke-width: 2px; stroke: rgb(238, 83, 79); stroke-opacity: 1; fill: rgb(238, 83, 79); fill-opacity: 1; opacity: 1;"/><path class="box" d="M447.81,97.95H453.69M447.81,98.25H453.69V97.95H447.81ZM450.75,98.25V105.8M450.75,97.95V94.78" style="vector-effect: non-scaling-stroke; stroke-width: 2px; stroke: rgb(38, 166, 154); stroke-opacity: 1; fill: rgb(38, 166, 154); fill-opacity: 1; opacity: 1;"/><path class="box" d="M459.83,96.54H465.71M459.83,97.99H465.71V95.54H459.83ZM462.77,97.99V105.46M462.77,95.54V87.73" style="vector-effect: non-scaling-stroke; stroke-width: 2px; stroke: rgb(38, 166, 154); stroke-opacity: 1; fill: rgb(38, 166, 154); fill-opacity: 1; opacity: 1;"/><path class="box" d="M471.85,96.57H477.73M471.85,97.57H477.73V95.54H471.85ZM474.79,97.57V121.79M474.79,95.54V75.09" style="vector-effect: non-scaling-stroke; stroke-width: 2px; stroke: rgb(238, 83, 79); stroke-opacity: 1; fill: rgb(238, 83, 79); fill-opacity: 1; opacity: 1;"/><path class="box" d="M483.87,91.63H489.75M483.87,97.61H489.75V90.63H483.87ZM486.81,97.61V103.23M486.81,90.63V78.22" style="vector-effect: non-scaling-stroke; stroke-width: 2px; stroke: rgb(38, 166, 154); stroke-opacity: 1; fill: rgb(38, 166, 154); fill-opacity: 1; opacity: 1;"/><path class="box" d="M495.89,60.03H501.77M495.89,90.56H501.77V59.03H495.89ZM498.83,90.56V95.35M498.83,59.03V29.61" style="vector-effect: non-scaling-stroke; stroke-width: 2px; stroke: rgb(38, 166, 154); stroke-opacity: 1; fill: rgb(38, 166, 154); fill-opacity: 1; opacity: 1;"/><path class="box" d="M507.91,58.25H513.79M507.91,59.25H513.79V57.82H507.91ZM510.85,59.25V60.12M510.85,57.82V49.97" style="vector-effect: non-scaling-stroke; stroke-width: 2px; stroke: rgb(38, 166, 154); stroke-opacity: 1; fill: rgb(38, 166, 154); fill-opacity: 1; opacity: 1;"/><path class="box" d="M519.93,38.72H525.81M519.93,57.82H525.81V37.72H519.93ZM522.87,57.82V61.74M522.87,37.72V35.72" style="vector-effect: non-scaling-stroke; stroke-width: 2px; stroke: rgb(38, 166, 154); stroke-opacity: 1; fill: rgb(38, 166, 154); fill-opacity: 1; opacity: 1;"/><path class="box" d="M531.95,23.55H537.83M531.95,37.72H537.83V22.55H531.95ZM534.89,37.72V40.13M534.89,22.55V13.05" style="vector-effect: non-scaling-stroke; stroke-width: 2px; stroke: rgb(38, 166, 154); stroke-opacity: 1; fill: rgb(38, 166, 154); fill-opacity: 1; opacity: 1;"/><path class="box" d="M543.97,82.05H549.85M543.97,83.05H549.85V22.4H543.97ZM546.91,83.05V94.1M546.91,22.4V19.8" style="vector-effect: non-scaling-stroke; stroke-width: 2px; stroke: rgb(238, 83, 79); stroke-opacity: 1; fill: rgb(238, 83, 79); fill-opacity: 1; opacity: 1;"/><path class="box" d="M555.99,84.15H561.87M555.99,84.15H561.87V83.5H555.99ZM558.93,84.15V105.72M558.93,83.5V66.19" style="vector-effect: non-scaling-stroke; stroke-width: 2px; stroke: rgb(238, 83, 79); stroke-opacity: 1; fill: rgb(238, 83, 79); fill-opacity: 1; opacity: 1;"/><path class="box" d="M568.01,96.8H573.89M568.01,97.8H573.89V84.22H568.01ZM570.95,97.8V98.59M570.95,84.22V76.87" style="vector-effect: non-scaling-stroke; stroke-width: 2px; stroke: rgb(238, 83, 79); stroke-opacity: 1; fill: rgb(238, 83, 79); fill-opacity: 1; opacity: 1;"/><path class="box" d="M580.03,91.03H585.91M580.03,97.8H585.91V90.03H580.03ZM582.97,97.8V100.82M582.97,90.03V89.99" style="vector-effect: non-scaling-stroke; stroke-width: 2px; stroke: rgb(38, 166, 154); stroke-opacity: 1; fill: rgb(38, 166, 154); fill-opacity: 1; opacity: 1;"/><path class="box" style="vector-effect: non-scaling-stroke;"/><path class="box" style="vector-effect: non-scaling-stroke;"/><path class="box" style="vector-effect: non-scaling-stroke;"/><path class="box" style="vector-effect: non-scaling-stroke;"/><path class="box" style="vector-effect: non-scaling-stroke;"/><path class="box" style="vector-effect: non-scaling-stroke;"/><path class="box" style="vector-effect: non-scaling-stroke;"/><path class="box" style="vector-effect: non-scaling-stroke;"/><path class="box" style="vector-effect: non-scaling-stroke;"/><path class="box" style="vector-effect: non-scaling-stroke;"/><path class="box" style="vector-effect: non-scaling-stroke;"/><path class="box" d="M724.27,98.69H730.15M724.27,99.69H730.15V97.88H724.27ZM727.21,99.69V100.85M727.21,97.88V90.37" style="vector-effect: non-scaling-stroke; stroke-width: 2px; stroke: rgb(38, 166, 154); stroke-opacity: 1; fill: rgb(38, 166, 154); fill-opacity: 1; opacity: 1;"/><path class="box" d="M736.29,85H742.17M736.29,97.84H742.17V84H736.29ZM739.23,97.84V101.76M739.23,84V83.5" style="vector-effect: non-scaling-stroke; stroke-width: 2px; stroke: rgb(38, 166, 154); stroke-opacity: 1; fill: rgb(38, 166, 154); fill-opacity: 1; opacity: 1;"/><path class="box" d="M748.31,130.93H754.19M748.31,131.93H754.19V84H748.31ZM751.25,131.93V132.99M751.25,84V82.22" style="vector-effect: non-scaling-stroke; stroke-width: 2px; stroke: rgb(238, 83, 79); stroke-opacity: 1; fill: rgb(238, 83, 79); fill-opacity: 1; opacity: 1;"/><path class="box" d="M760.33,123.54H766.21M760.33,132.01H766.21V122.54H760.33ZM763.27,132.01V134.76M763.27,122.54V109.45" style="vector-effect: non-scaling-stroke; stroke-width: 2px; stroke: rgb(38, 166, 154); stroke-opacity: 1; fill: rgb(38, 166, 154); fill-opacity: 1; opacity: 1;"/><path class="box" d="M772.35,129.65H778.23M772.35,130.65H778.23V122.47H772.35ZM775.29,130.65V140.95M775.29,122.47V114.36" style="vector-effect: non-scaling-stroke; stroke-width: 2px; stroke: rgb(238, 83, 79); stroke-opacity: 1; fill: rgb(238, 83, 79); fill-opacity: 1; opacity: 1;"/><path class="box" d="M784.37,123.54H790.25M784.37,130.65H790.25V122.54H784.37ZM787.31,130.65V137.25M787.31,122.54V119.52" style="vector-effect: non-scaling-stroke; stroke-width: 2px; stroke: rgb(38, 166, 154); stroke-opacity: 1; fill: rgb(38, 166, 154); fill-opacity: 1; opacity: 1;"/><path class="box" d="M796.39,124.67H802.27M796.39,125.67H802.27V122.54H796.39ZM799.33,125.67V129.1M799.33,122.54V118.66" style="vector-effect: non-scaling-stroke; stroke-width: 2px; stroke: rgb(238, 83, 79); stroke-opacity: 1; fill: rgb(238, 83, 79); fill-opacity: 1; opacity: 1;"/><path class="box" d="M808.41,130.33H814.29M808.41,131.33H814.29V125.82H808.41ZM811.35,131.33V132.35M811.35,125.82V121.52" style="vector-effect: non-scaling-stroke; stroke-width: 2px; stroke: rgb(238, 83, 79); stroke-opacity: 1; fill: rgb(238, 83, 79); fill-opacity: 1; opacity: 1;"/><path class="box" d="M820.43,132.78H826.31M820.43,133.78H826.31V131.29H820.43ZM823.37,133.78V138.72M823.37,131.29V116.85" style="vector-effect: non-scaling-stroke; stroke-width: 2px; stroke: rgb(238, 83, 79); stroke-opacity: 1; fill: rgb(238, 83, 79); fill-opacity: 1; opacity: 1;"/><path class="box" d="M832.45,96.12H838.33M832.45,134.05H838.33V95.12H832.45ZM835.39,134.05V139.82M835.39,95.12V82.83" style="vector-effect: non-scaling-stroke; stroke-width: 2px; stroke: rgb(38, 166, 154); stroke-opacity: 1; fill: rgb(38, 166, 154); fill-opacity: 1; opacity: 1;"/><path class="box" d="M844.47,94.63H850.35M844.47,95.01H850.35V94.63H844.47ZM847.41,95.01V103.27M847.41,94.63V72.87" style="vector-effect: non-scaling-stroke; stroke-width: 2px; stroke: rgb(38, 166, 154); stroke-opacity: 1; fill: rgb(38, 166, 154); fill-opacity: 1; opacity: 1;"/><path class="box" d="M856.49,77.9H862.37M856.49,94.71H862.37V76.9H856.49ZM859.43,94.71V100.29M859.43,76.9V74.91" style="vector-effect: non-scaling-stroke; stroke-width: 2px; stroke: rgb(38, 166, 154); stroke-opacity: 1; fill: rgb(38, 166, 154); fill-opacity: 1; opacity: 1;"/><path class="box" d="M868.51,85.3H874.39M868.51,86.3H874.39V76.98H868.51ZM871.45,86.3V86.97M871.45,76.98V76.57" style="vector-effect: non-scaling-stroke; stroke-width: 2px; stroke: rgb(238, 83, 79); stroke-opacity: 1; fill: rgb(238, 83, 79); fill-opacity: 1; opacity: 1;"/><path class="box" d="M880.53,100.38H886.41M880.53,101.38H886.41V86.33H880.53ZM883.47,101.38V101.5M883.47,86.33V84.71" style="vector-effect: non-scaling-stroke; stroke-width: 2px; stroke: rgb(238, 83, 79); stroke-opacity: 1; fill: rgb(238, 83, 79); fill-opacity: 1; opacity: 1;"/><path class="box" d="M892.55,119.66H898.43M892.55,120.66H898.43V101.38H892.55ZM895.49,120.66V124.65M895.49,101.38V88.71" style="vector-effect: non-scaling-stroke; stroke-width: 2px; stroke: rgb(238, 83, 79); stroke-opacity: 1; fill: rgb(238, 83, 79); fill-opacity: 1; opacity: 1;"/><path class="box" d="M904.57,163.6H910.45M904.57,164.6H910.45V120.73H904.57ZM907.51,164.6V167.05M907.51,120.73V114.62" style="vector-effect: non-scaling-stroke; stroke-width: 2px; stroke: rgb(238, 83, 79); stroke-opacity: 1; fill: rgb(238, 83, 79); fill-opacity: 1; opacity: 1;"/><path class="box" d="M916.59,178.34H922.47M916.59,179.34H922.47V165.09H916.59ZM919.53,179.34V184.89M919.53,165.09V155.58" style="vector-effect: non-scaling-stroke; stroke-width: 2px; stroke: rgb(238, 83, 79); stroke-opacity: 1; fill: rgb(238, 83, 79); fill-opacity: 1; opacity: 1;"/><path class="box" d="M928.61,183.89H934.49M928.61,184.89H934.49V179.27H928.61ZM931.55,184.89V190.24M931.55,179.27V176.63" style="vector-effect: non-scaling-stroke; stroke-width: 2px; stroke: rgb(238, 83, 79); stroke-opacity: 1; fill: rgb(238, 83, 79); fill-opacity: 1; opacity: 1;"/><path class="box" d="M940.63,182.87H946.51M940.63,184.32H946.51V181.87H940.63ZM943.57,184.32V190.05M943.57,181.87V180.14" style="vector-effect: non-scaling-stroke; stroke-width: 2px; stroke: rgb(38, 166, 154); stroke-opacity: 1; fill: rgb(38, 166, 154); fill-opacity: 1; opacity: 1;"/><path class="box" d="M952.65,170.01H958.53M952.65,181.83H958.53V169.01H952.65ZM955.59,181.83V184.51M955.59,169.01V165.31" style="vector-effect: non-scaling-stroke; stroke-width: 2px; stroke: rgb(38, 166, 154); stroke-opacity: 1; fill: rgb(38, 166, 154); fill-opacity: 1; opacity: 1;"/><path class="box" d="M964.67,191.05H970.55M964.67,192.05H970.55V168.97H964.67ZM967.61,192.05V192.69M967.61,168.97V168.97" style="vector-effect: non-scaling-stroke; stroke-width: 2px; stroke: rgb(238, 83, 79); stroke-opacity: 1; fill: rgb(238, 83, 79); fill-opacity: 1; opacity: 1;"/><path class="box" d="M976.69,191.28H982.57M976.69,192.28H982.57V190.73H976.69ZM979.63,192.28V224.04M979.63,190.73V187.15" style="vector-effect: non-scaling-stroke; stroke-width: 2px; stroke: rgb(38, 166, 154); stroke-opacity: 1; fill: rgb(38, 166, 154); fill-opacity: 1; opacity: 1;"/><path class="box" d="M988.71,193.54H994.59M988.71,194.54H994.59V190.73H988.71ZM991.65,194.54V204.73M991.65,190.73V176.55" style="vector-effect: non-scaling-stroke; stroke-width: 2px; stroke: rgb(238, 83, 79); stroke-opacity: 1; fill: rgb(238, 83, 79); fill-opacity: 1; opacity: 1;"/><path class="box" d="M1000.73,211.08H1006.61M1000.73,212.08H1006.61V194.58H1000.73ZM1003.67,212.08V213.1M1003.67,194.58V185.53" style="vector-effect: non-scaling-stroke; stroke-width: 2px; stroke: rgb(238, 83, 79); stroke-opacity: 1; fill: rgb(238, 83, 79); fill-opacity: 1; opacity: 1;"/><path class="box" d="M1012.75,205.54H1018.63M1012.75,212.04H1018.63V204.54H1012.75ZM1015.69,212.04V214.68M1015.69,204.54V202.58" style="vector-effect: non-scaling-stroke; stroke-width: 2px; stroke: rgb(38, 166, 154); stroke-opacity: 1; fill: rgb(38, 166, 154); fill-opacity: 1; opacity: 1;"/><path class="box" d="M1024.77,203.31H1030.65M1024.77,204.5H1030.65V202.31H1024.77ZM1027.71,204.5V215.4M1027.71,202.31V200.58" style="vector-effect: non-scaling-stroke; stroke-width: 2px; stroke: rgb(38, 166, 154); stroke-opacity: 1; fill: rgb(38, 166, 154); fill-opacity: 1; opacity: 1;"/><path class="box" d="M1036.79,240.8H1042.67M1036.79,241.8H1042.67V202.43H1036.79ZM1039.73,241.8V247.95M1039.73,202.43V198.43" style="vector-effect: non-scaling-stroke; stroke-width: 2px; stroke: rgb(238, 83, 79); stroke-opacity: 1; fill: rgb(238, 83, 79); fill-opacity: 1; opacity: 1;"/><path class="box" d="M1048.81,221H1054.69M1048.81,241.84H1054.69V220H1048.81ZM1051.75,241.84V243.16M1051.75,220V217.55" style="vector-effect: non-scaling-stroke; stroke-width: 2px; stroke: rgb(38, 166, 154); stroke-opacity: 1; fill: rgb(38, 166, 154); fill-opacity: 1; opacity: 1;"/><path class="box" d="M1060.83,218.7H1066.71M1060.83,220.08H1066.71V217.7H1060.83ZM1063.77,220.08V227.88M1063.77,217.7V202.58" style="vector-effect: non-scaling-stroke; stroke-width: 2px; stroke: rgb(38, 166, 154); stroke-opacity: 1; fill: rgb(38, 166, 154); fill-opacity: 1; opacity: 1;"/><path class="box" d="M1072.85,228.73H1078.73M1072.85,229.73H1078.73V217.63H1072.85ZM1075.79,229.73V235.28M1075.79,217.63V214.76" style="vector-effect: non-scaling-stroke; stroke-width: 2px; stroke: rgb(238, 83, 79); stroke-opacity: 1; fill: rgb(238, 83, 79); fill-opacity: 1; opacity: 1;"/><path class="box" d="M1084.87,233.03H1090.75M1084.87,234.03H1090.75V229.77H1084.87ZM1087.81,234.03V236.03M1087.81,229.77V229.47" style="vector-effect: non-scaling-stroke; stroke-width: 2px; stroke: rgb(238, 83, 79); stroke-opacity: 1; fill: rgb(238, 83, 79); fill-opacity: 1; opacity: 1;"/><path class="box" style="vector-effect: non-scaling-stroke;"/><path class="box" style="vector-effect: non-scaling-stroke;"/><path class="box" style="vector-effect: non-scaling-stroke;"/><path class="box" style="vector-effect: non-scaling-stroke;"/><path class="box" style="vector-effect: non-scaling-stroke;"/><path class="box" style="vector-effect: non-scaling-stroke;"/><path class="box" style="vector-effect: non-scaling-stroke;"/><path class="box" style="vector-effect: non-scaling-stroke;"/><path class="box" style="vector-effect: non-scaling-stroke;"/></g></g></g><g class="overplot"/><path class="xlines-above crisp" d="M0,0" style="fill: none;"/><path class="ylines-above crisp" d="M0,0" style="fill: none;"/><g class="overlines-above"/><g class="xaxislayer-above"><g class="xtick"><text text-anchor="middle" x="0" y="320" transform="translate(78.05,0)" style="font-family: 'Open Sans', verdana, arial, sans-serif; font-size: 12px; fill: rgb(214, 223, 239); fill-opacity: 1; white-space: pre; opacity: 1;"><tspan class="line" dy="0em" x="0" y="320">Sep 13</tspan><tspan class="line" dy="1.3em" x="0" y="320">2019</tspan></text></g><g class="xtick"><text text-anchor="middle" x="0" y="320" style="font-family: 'Open Sans', verdana, arial, sans-serif; font-size: 12px; fill: rgb(214, 223, 239); fill-opacity: 1; white-space: pre; opacity: 1;" transform="translate(222.29,0)">Sep 15</text></g><g class="xtick"><text text-anchor="middle" x="0" y="320" style="font-family: 'Open Sans', verdana, arial, sans-serif; font-size: 12px; fill: rgb(214, 223, 239); fill-opacity: 1; white-space: pre; opacity: 1;" transform="translate(366.53,0)">Sep 17</text></g><g class="xtick"><text text-anchor="middle" x="0" y="320" style="font-family: 'Open Sans', verdana, arial, sans-serif; font-size: 12px; fill: rgb(214, 223, 239); fill-opacity: 1; white-space: pre; opacity: 1;" transform="translate(510.77,0)">Sep 19</text></g><g class="xtick"><text text-anchor="middle" x="0" y="320" style="font-family: 'Open Sans', verdana, arial, sans-serif; font-size: 12px; fill: rgb(214, 223, 239); fill-opacity: 1; white-space: pre; opacity: 1;" transform="translate(655.01,0)">Sep 21</text></g><g class="xtick"><text text-anchor="middle" x="0" y="320" style="font-family: 'Open Sans', verdana, arial, sans-serif; font-size: 12px; fill: rgb(214, 223, 239); fill-opacity: 1; white-space: pre; opacity: 1;" transform="translate(799.25,0)">Sep 23</text></g><g class="xtick"><text text-anchor="middle" x="0" y="320" style="font-family: 'Open Sans', verdana, arial, sans-serif; font-size: 12px; fill: rgb(214, 223, 239); fill-opacity: 1; white-space: pre; opacity: 1;" transform="translate(943.49,0)">Sep 25</text></g><g class="xtick"><text text-anchor="middle" x="0" y="320" style="font-family: 'Open Sans', verdana, arial, sans-serif; font-size: 12px; fill: rgb(214, 223, 239); fill-opacity: 1; white-space: pre; opacity: 1;" transform="translate(1087.73,0)">Sep 27</text></g><g class="xtick"><text text-anchor="middle" x="0" y="320" style="font-family: 'Open Sans', verdana, arial, sans-serif; font-size: 12px; fill: rgb(214, 223, 239); fill-opacity: 1; white-space: pre; opacity: 1;" transform="translate(1231.97,0)">Sep 29</text></g></g><g class="yaxislayer-above"><g class="ytick"><text text-anchor="end" x="47" y="4.199999999999999" transform="translate(0,272.11)" style="font-family: 'Open Sans', verdana, arial, sans-serif; font-size: 12px; fill: rgb(214, 223, 239); fill-opacity: 1; white-space: pre; opacity: 1;">1.23</text></g><g class="ytick"><text text-anchor="end" x="47" y="4.199999999999999" style="font-family: 'Open Sans', verdana, arial, sans-serif; font-size: 12px; fill: rgb(214, 223, 239); fill-opacity: 1; white-space: pre; opacity: 1;" transform="translate(0,234.4)">1.235</text></g><g class="ytick"><text text-anchor="end" x="47" y="4.199999999999999" style="font-family: 'Open Sans', verdana, arial, sans-serif; font-size: 12px; fill: rgb(214, 223, 239); fill-opacity: 1; white-space: pre; opacity: 1;" transform="translate(0,196.68)">1.24</text></g><g class="ytick"><text text-anchor="end" x="47" y="4.199999999999999" style="font-family: 'Open Sans', verdana, arial, sans-serif; font-size: 12px; fill: rgb(214, 223, 239); fill-opacity: 1; white-space: pre; opacity: 1;" transform="translate(0,158.95999999999998)">1.245</text></g><g class="ytick"><text text-anchor="end" x="47" y="4.199999999999999" style="font-family: 'Open Sans', verdana, arial, sans-serif; font-size: 12px; fill: rgb(214, 223, 239); fill-opacity: 1; white-space: pre; opacity: 1;" transform="translate(0,121.24)">1.25</text></g><g class="ytick"><text text-anchor="end" x="47" y="4.199999999999999" style="font-family: 'Open Sans', verdana, arial, sans-serif; font-size: 12px; fill: rgb(214, 223, 239); fill-opacity: 1; white-space: pre; opacity: 1;" transform="translate(0,83.53)">1.255</text></g></g><g class="overaxes-above"/></g></g><g class="polarlayer"/><g class="smithlayer"/><g class="ternarylayer"/><g class="geolayer"/><g class="funnelarealayer"/><g class="pielayer"/><g class="iciclelayer"/><g class="treemaplayer"/><g class="sunburstlayer"/><g class="glimages"/><defs id="topdefs-48396e"><g class="clips"/><clipPath id="legend48396e"><rect width="79" height="29" x="0" y="0"/></clipPath></defs><g class="layer-above"><g class="imagelayer"/><g class="shapelayer"/></g><g class="infolayer"><g class="legend" pointer-events="all" transform="translate(1171,11.779999999999994)"><rect class="bg" shape-rendering="crispEdges" style="stroke: rgb(68, 68, 68); stroke-opacity: 1; fill: rgb(33, 34, 44); fill-opacity: 1; stroke-width: 0px;" width="79" height="29" x="0" y="0"/><g class="scrollbox" transform="" clip-path="url(#legend48396e)"><g class="groups"><g class="traces" transform="translate(0,14.5)" style="opacity: 1;"><text class="legendtext" text-anchor="start" x="40" y="4.680000000000001" style="font-family: 'Open Sans', verdana, arial, sans-serif; font-size: 12px; fill: rgb(214, 223, 239); fill-opacity: 1; white-space: pre;">OHLC</text><g class="layers" style="opacity: 0.75;"><g class="legendfill"/><g class="legendlines"/><g class="legendsymbols"><g class="legendpoints"><path class="legendcandle" d="M15,0H8M8,-6V6H-8Z" transform="translate(20,0)" style="stroke-miterlimit: 1; stroke-width: 2px; fill: rgb(238, 83, 79); fill-opacity: 1; stroke: rgb(238, 83, 79); stroke-opacity: 1;"/><path class="legendcandle" d="M-15,0H-8M-8,6V-6H8Z" transform="translate(20,0)" style="stroke-miterlimit: 1; stroke-width: 2px; fill: rgb(38, 166, 154); fill-opacity: 1; stroke: rgb(38, 166, 154); stroke-opacity: 1;"/></g></g></g><rect class="legendtoggle" x="0" y="-9.5" width="76.03125" height="19" style="fill: rgb(0, 0, 0); fill-opacity: 0;"/></g></g></g><rect class="scrollbar" rx="20" ry="3" width="0" height="0" style="fill: rgb(128, 139, 164); fill-opacity: 1;" x="0" y="0"/></g><g class="g-gtitle"><text class="gtitle" x="64" y="23" text-anchor="start" dy="0em" style="font-family: 'Open Sans', verdana, arial, sans-serif; font-size: 18px; fill: rgb(214, 223, 239); opacity: 1; font-weight: normal; white-space: pre;">OHLCV Plot</text></g><g class="g-xtitle"/><g class="g-ytitle"/></g></svg>