<svg class="main-svg" xmlns="http://www.w3.org/2000/svg" xmlns:xlink="http://www.w3.org/1999/xlink" width="1280" height="350" style="" viewBox="0 0 1280 350"><rect x="0" y="0" width="1280" height="350" style="fill: rgb(33, 34, 44); fill-opacity: 1;"/><defs id="defs-88224b"><g class="clips"><clipPath id="clip88224bxyplot" class="plotclip"><rect width="1210" height="124.64999999999999"/></clipPath><clipPath id="clip88224bx2y2plot" class="plotclip"><rect width="1210" height="124.65"/></clipPath><clipPath class="axesclip" id="clip88224bx"><rect x="40" y="0" width="1210" height="350"/></clipPath><clipPath class="axesclip" id="clip88224by"><rect x="0" y="30" width="1280" height="124.64999999999999"/></clipPath><clipPath class="axesclip" id="clip88224bxy"><rect x="40" y="30" width="1210" height="124.64999999999999"/></clipPath><clipPath class="axesclip" id="clip88224by2"><rect x="0" y="182.35000000000002" width="1280" height="124.65"/></clipPath><clipPath class="axesclip" id="clip88224bxy2"><rect x="40" y="182.35000000000002" width="1210" height="124.65"/></clipPath><clipPath class="axesclip" id="clip88224bx2"><rect x="40" y="0" width="1210" height="350"/></clipPath><clipPath class="axesclip" id="clip88224bx2y"><rect x="40" y="30" width="1210" height="124.64999999999999"/></clipPath><clipPath class="axesclip" id="clip88224bx2y2"><rect x="40" y="182.35000000000002" width="1210" height="124.65"/></clipPath></g><g class="gradients"/><g class="patterns"/></defs><g class="bglayer"/><g class="layer-below"><g class="imagelayer"/><g class="shapelayer"/></g><g class="cartesianlayer"><g class="subplot xy"><g class="layer-subplot"><g class="shapelayer"/><g class="imagelayer"/></g><g class="minor-gridlayer"><g class="x"/><g class="y"/></g><g class="gridlayer"><g class="x"><path class="xgrid crisp" transform="translate(90.84,0)" d="M0,30v124.64999999999999" style="stroke: rgb(47, 62, 78); stroke-opacity: 1; stroke-width: 1px;"/><path class="xgrid crisp" transform="translate(192.52,0)" d="M0,30v124.64999999999999" style="stroke: rgb(47, 62, 78); stroke-opacity: 1; stroke-width: 1px;"/><path class="xgrid crisp" transform="translate(253.53,0)" d="M0,30v124.64999999999999" style="stroke: rgb(47, 62, 78); stroke-opacity: 1; stroke-width: 1px;"/><path class="xgrid crisp" transform="translate(497.56,0)" d="M0,30v124.64999999999999" style="stroke: rgb(47, 62, 78); stroke-opacity: 1; stroke-width: 1px;"/><path class="xgrid crisp" transform="translate(721.26,0)" d="M0,30v124.64999999999999" style="stroke: rgb(47, 62, 78); stroke-opacity: 1; stroke-width: 1px;"/><path class="xgrid crisp" transform="translate(904.29,0)" d="M0,30v124.64999999999999" style="stroke: rgb(47, 62, 78); stroke-opacity: 1; stroke-width: 1px;"/><path class="xgrid crisp" transform="translate(1148.32,0)" d="M0,30v124.64999999999999" style="stroke: rgb(47, 62, 78); stroke-opacity: 1; stroke-width: 1px;"/></g><g class="y"><path class="ygrid crisp" transform="translate(0,138.01999999999998)" d="M40,0h1210" style="stroke: rgb(47, 62, 78); stroke-opacity: 1; stroke-width: 1px;"/><path class="ygrid crisp" transform="translate(0,103.09)" d="M40,0h1210" style="stroke: rgb(47, 62, 78); stroke-opacity: 1; stroke-width: 1px;"/><path class="ygrid crisp" transform="translate(0,68.16)" d="M40,0h1210" style="stroke: rgb(47, 62, 78); stroke-opacity: 1; stroke-width: 1px;"/><path class="ygrid crisp" transform="translate(0,33.23)" d="M40,0h1210" style="stroke: rgb(47, 62, 78); stroke-opacity: 1; stroke-width: 1px;"/></g></g><g class="zerolinelayer"/><path class="xlines-below"/><path class="ylines-below"/><g class="overlines-below"/><g class="xaxislayer-below"/><g class="yaxislayer-below"/><g class="overaxes-below"/><g class="plot" transform="translate(40,30)" clip-path="url(#clip88224bxyplot)"><g class="boxlayer mlayer"><g class="trace boxes" style="opacity: 0.75;"><path class="box" d="M5.19,96.89H15.15M5.19,97.89H15.15V94.96H5.19ZM10.17,97.89V98.33M10.17,94.96V91.83" style="vector-effect: non-scaling-stroke; stroke-width: 2px; stroke: rgb(238, 83, 79); stroke-opacity: 1; fill: rgb(238, 83, 79); fill-opacity: 1; opacity: 1;"/><path class="box" d="M25.52,94.98H35.49M25.52,97.73H35.49V93.98H25.52ZM30.505000000000003,97.73V98.47M30.505000000000003,93.98V93.68" style="vector-effect: non-scaling-stroke; stroke-width: 2px; stroke: rgb(38, 166, 154); stroke-opacity: 1; fill: rgb(38, 166, 154); fill-opacity: 1; opacity: 1;"/><path class="box" d="M45.86,70.75H55.82M45.86,93.98H55.82V69.75H45.86ZM50.84,93.98V94.64M50.84,69.75V67.01" style="vector-effect: non-scaling-stroke; stroke-width: 2px; stroke: rgb(38, 166, 154); stroke-opacity: 1; fill: rgb(38, 166, 154); fill-opacity: 1; opacity: 1;"/><path class="box" d="M66.19,55.58H76.16M66.19,69.6H76.16V54.58H66.19ZM71.175,69.6V75.8M71.175,54.58V46.51" style="vector-effect: non-scaling-stroke; stroke-width: 2px; stroke: rgb(38, 166, 154); stroke-opacity: 1; fill: rgb(38, 166, 154); fill-opacity: 1; opacity: 1;"/><path class="box" d="M86.53,52.29H96.49M86.53,54.59H96.49V51.29H86.53ZM91.50999999999999,54.59V63.74M91.50999999999999,51.29V50.73" style="vector-effect: non-scaling-stroke; stroke-width: 2px; stroke: rgb(38, 166, 154); stroke-opacity: 1; fill: rgb(38, 166, 154); fill-opacity: 1; opacity: 1;"/><path class="box" d="M106.87,41.74H116.83M106.87,51.47H116.83V40.74H106.87ZM111.85,51.47V53.77M111.85,40.74V39.62" style="vector-effect: non-scaling-stroke; stroke-width: 2px; stroke: rgb(38, 166, 154); stroke-opacity: 1; fill: rgb(38, 166, 154); fill-opacity: 1; opacity: 1;"/><path class="box" d="M127.2,38.58H137.17M127.2,40.71H137.17V37.58H127.2ZM132.185,40.71V41.89M132.185,37.58V35.83" style="vector-effect: non-scaling-stroke; stroke-width: 2px; stroke: rgb(38, 166, 154); stroke-opacity: 1; fill: rgb(38, 166, 154); fill-opacity: 1; opacity: 1;"/><path class="box" style="vector-effect: non-scaling-stroke;"/><path class="box" style="vector-effect: non-scaling-stroke;"/><path class="box" style="vector-effect: non-scaling-stroke;"/><path class="box" style="vector-effect: non-scaling-stroke;"/><path class="box" style="vector-effect: non-scaling-stroke;"/><path class="box" style="vector-effect: non-scaling-stroke;"/><path class="box" style="vector-effect: non-scaling-stroke;"/><path class="box" style="vector-effect: non-scaling-stroke;"/><path class="box" style="vector-effect: non-scaling-stroke;"/><path class="box" style="vector-effect: non-scaling-stroke;"/><path class="box" style="vector-effect: non-scaling-stroke;"/><path class="box" style="vector-effect: non-scaling-stroke;"/><path class="box" style="vector-effect: non-scaling-stroke;"/><path class="box" style="vector-effect: non-scaling-stroke;"/><path class="box" style="vector-effect: non-scaling-stroke;"/><path class="box" style="vector-effect: non-scaling-stroke;"/><path class="box" d="M147.54,64.46H157.5M147.54,65.46H157.5V63.87H147.54ZM152.51999999999998,65.46V67.9M152.51999999999998,63.87V62.3" style="vector-effect: non-scaling-stroke; stroke-width: 2px; stroke: rgb(38, 166, 154); stroke-opacity: 1; fill: rgb(38, 166, 154); fill-opacity: 1; opacity: 1;"/><path class="box" d="M167.87,64.13H177.84M167.87,64.13H177.84V63.92H167.87ZM172.85500000000002,64.13V65.56M172.85500000000002,63.92V61.91" style="vector-effect: non-scaling-stroke; stroke-width: 2px; stroke: rgb(238, 83, 79); stroke-opacity: 1; fill: rgb(238, 83, 79); fill-opacity: 1; opacity: 1;"/><path class="box" d="M188.21,67.9H198.18M188.21,68.9H198.18V64.15H188.21ZM193.195,68.9V70.36M193.195,64.15V62.82" style="vector-effect: non-scaling-stroke; stroke-width: 2px; stroke: rgb(238, 83, 79); stroke-opacity: 1; fill: rgb(238, 83, 79); fill-opacity: 1; opacity: 1;"/><path class="box" d="M208.55,72.86H218.51M208.55,73.86H218.51V68.86H208.55ZM213.53,73.86V75.52M213.53,68.86V63.97" style="vector-effect: non-scaling-stroke; stroke-width: 2px; stroke: rgb(238, 83, 79); stroke-opacity: 1; fill: rgb(238, 83, 79); fill-opacity: 1; opacity: 1;"/><path class="box" d="M228.88,67.52H238.85M228.88,73.86H238.85V66.52H228.88ZM233.865,73.86V75.69M233.865,66.52V66.02" style="vector-effect: non-scaling-stroke; stroke-width: 2px; stroke: rgb(38, 166, 154); stroke-opacity: 1; fill: rgb(38, 166, 154); fill-opacity: 1; opacity: 1;"/><path class="box" d="M249.22,41.71H259.18M249.22,66.52H259.18V40.71H249.22ZM254.2,66.52V69.14M254.2,40.71V39.92" style="vector-effect: non-scaling-stroke; stroke-width: 2px; stroke: rgb(38, 166, 154); stroke-opacity: 1; fill: rgb(38, 166, 154); fill-opacity: 1; opacity: 1;"/><path class="box" d="M269.56,38.2H279.52M269.56,40.71H279.52V37.2H269.56ZM274.53999999999996,40.71V42.49M274.53999999999996,37.2V28.53" style="vector-effect: non-scaling-stroke; stroke-width: 2px; stroke: rgb(38, 166, 154); stroke-opacity: 1; fill: rgb(38, 166, 154); fill-opacity: 1; opacity: 1;"/><path class="box" d="M289.89,37.62H299.86M289.89,37.62H299.86V37.37H289.89ZM294.875,37.62V40.38M294.875,37.37V35.01" style="vector-effect: non-scaling-stroke; stroke-width: 2px; stroke: rgb(238, 83, 79); stroke-opacity: 1; fill: rgb(238, 83, 79); fill-opacity: 1; opacity: 1;"/><path class="box" d="M310.23,42.85H320.19M310.23,43.85H320.19V37.65H310.23ZM315.21000000000004,43.85V43.96M315.21000000000004,37.65V35.75" style="vector-effect: non-scaling-stroke; stroke-width: 2px; stroke: rgb(238, 83, 79); stroke-opacity: 1; fill: rgb(238, 83, 79); fill-opacity: 1; opacity: 1;"/><path class="box" d="M330.56,46.59H340.53M330.56,47.59H340.53V43.83H330.56ZM335.54499999999996,47.59V51.66M335.54499999999996,43.83V39.12" style="vector-effect: non-scaling-stroke; stroke-width: 2px; stroke: rgb(238, 83, 79); stroke-opacity: 1; fill: rgb(238, 83, 79); fill-opacity: 1; opacity: 1;"/><path class="box" d="M350.9,52.68H360.86M350.9,53.68H360.86V47.59H350.9ZM355.88,53.68V59.36M355.88,47.59V45.72" style="vector-effect: non-scaling-stroke; stroke-width: 2px; stroke: rgb(238, 83, 79); stroke-opacity: 1; fill: rgb(238, 83, 79); fill-opacity: 1; opacity: 1;"/><path class="box" d="M371.24,47.37H381.2M371.24,53.67H381.2V46.37H371.24ZM376.22,53.67V54.73M376.22,46.37V41.35" style="vector-effect: non-scaling-stroke; stroke-width: 2px; stroke: rgb(38, 166, 154); stroke-opacity: 1; fill: rgb(38, 166, 154); fill-opacity: 1; opacity: 1;"/><path class="box" d="M391.57,44.48H401.54M391.57,46.35H401.54V43.48H391.57ZM396.555,46.35V56.76M396.555,43.48V33.81" style="vector-effect: non-scaling-stroke; stroke-width: 2px; stroke: rgb(38, 166, 154); stroke-opacity: 1; fill: rgb(38, 166, 154); fill-opacity: 1; opacity: 1;"/><path class="box" d="M411.91,47.88H421.87M411.91,48.88H421.87V43.48H411.91ZM416.89,48.88V51.52M416.89,43.48V41.79" style="vector-effect: non-scaling-stroke; stroke-width: 2px; stroke: rgb(238, 83, 79); stroke-opacity: 1; fill: rgb(238, 83, 79); fill-opacity: 1; opacity: 1;"/><path class="box" d="M432.24,48.67H442.21M432.24,48.81H442.21V48.67H432.24ZM437.225,48.81V52.3M437.225,48.67V47.2" style="vector-effect: non-scaling-stroke; stroke-width: 2px; stroke: rgb(38, 166, 154); stroke-opacity: 1; fill: rgb(38, 166, 154); fill-opacity: 1; opacity: 1;"/><path class="box" d="M452.58,47.69H462.55M452.58,48.69H462.55V47.55H452.58ZM457.565,48.69V52.15M457.565,47.55V43.94" style="vector-effect: non-scaling-stroke; stroke-width: 2px; stroke: rgb(38, 166, 154); stroke-opacity: 1; fill: rgb(38, 166, 154); fill-opacity: 1; opacity: 1;"/><path class="box" d="M472.92,48.5H482.88M472.92,48.5H482.88V47.55H472.92ZM477.9,48.5V59.71M477.9,47.55V38.09" style="vector-effect: non-scaling-stroke; stroke-width: 2px; stroke: rgb(238, 83, 79); stroke-opacity: 1; fill: rgb(238, 83, 79); fill-opacity: 1; opacity: 1;"/><path class="box" d="M493.25,46.28H503.22M493.25,48.51H503.22V45.28H493.25ZM498.235,48.51V51.12M498.235,45.28V39.54" style="vector-effect: non-scaling-stroke; stroke-width: 2px; stroke: rgb(38, 166, 154); stroke-opacity: 1; fill: rgb(38, 166, 154); fill-opacity: 1; opacity: 1;"/><path class="box" d="M513.59,31.65H523.55M513.59,45.25H523.55V30.65H513.59ZM518.5699999999999,45.25V47.47M518.5699999999999,30.65V17.02" style="vector-effect: non-scaling-stroke; stroke-width: 2px; stroke: rgb(38, 166, 154); stroke-opacity: 1; fill: rgb(38, 166, 154); fill-opacity: 1; opacity: 1;"/><path class="box" d="M533.93,30.09H543.89M533.93,30.75H543.89V30.09H533.93ZM538.91,30.75V31.15M538.91,30.09V26.45" style="vector-effect: non-scaling-stroke; stroke-width: 2px; stroke: rgb(38, 166, 154); stroke-opacity: 1; fill: rgb(38, 166, 154); fill-opacity: 1; opacity: 1;"/><path class="box" d="M554.26,21.78H564.23M554.26,30.09H564.23V20.78H554.26ZM559.245,30.09V31.9M559.245,20.78V19.85" style="vector-effect: non-scaling-stroke; stroke-width: 2px; stroke: rgb(38, 166, 154); stroke-opacity: 1; fill: rgb(38, 166, 154); fill-opacity: 1; opacity: 1;"/><path class="box" d="M574.6,14.76H584.56M574.6,20.78H584.56V13.76H574.6ZM579.5799999999999,20.78V21.9M579.5799999999999,13.76V9.36" style="vector-effect: non-scaling-stroke; stroke-width: 2px; stroke: rgb(38, 166, 154); stroke-opacity: 1; fill: rgb(38, 166, 154); fill-opacity: 1; opacity: 1;"/><path class="box" d="M594.93,40.77H604.9M594.93,41.77H604.9V13.69H594.93ZM599.915,41.77V46.89M599.915,13.69V12.48" style="vector-effect: non-scaling-stroke; stroke-width: 2px; stroke: rgb(238, 83, 79); stroke-opacity: 1; fill: rgb(238, 83, 79); fill-opacity: 1; opacity: 1;"/><path class="box" d="M615.27,42.28H625.23M615.27,42.28H625.23V41.98H615.27ZM620.25,42.28V52.27M620.25,41.98V33.97" style="vector-effect: non-scaling-stroke; stroke-width: 2px; stroke: rgb(238, 83, 79); stroke-opacity: 1; fill: rgb(238, 83, 79); fill-opacity: 1; opacity: 1;"/><path class="box" d="M635.61,47.6H645.57M635.61,48.6H645.57V42.31H635.61ZM640.59,48.6V48.97M640.59,42.31V38.91" style="vector-effect: non-scaling-stroke; stroke-width: 2px; stroke: rgb(238, 83, 79); stroke-opacity: 1; fill: rgb(238, 83, 79); fill-opacity: 1; opacity: 1;"/><path class="box" d="M655.94,46H665.91M655.94,48.6H665.91V45H655.94ZM660.925,48.6V50M660.925,45V44.99" style="vector-effect: non-scaling-stroke; stroke-width: 2px; stroke: rgb(38, 166, 154); stroke-opacity: 1; fill: rgb(38, 166, 154); fill-opacity: 1; opacity: 1;"/><path class="box" style="vector-effect: non-scaling-stroke;"/><path class="box" style="vector-effect: non-scaling-stroke;"/><path class="box" style="vector-effect: non-scaling-stroke;"/><path class="box" style="vector-effect: non-scaling-stroke;"/><path class="box" style="vector-effect: non-scaling-stroke;"/><path class="box" style="vector-effect: non-scaling-stroke;"/><path class="box" style="vector-effect: non-scaling-stroke;"/><path class="box" style="vector-effect: non-scaling-stroke;"/><path class="box" style="vector-effect: non-scaling-stroke;"/><path class="box" style="vector-effect: non-scaling-stroke;"/><path class="box" style="vector-effect: non-scaling-stroke;"/><path class="box" style="vector-effect: non-scaling-stroke;"/><path class="box" style="vector-effect: non-scaling-stroke;"/><path class="box" style="vector-effect: non-scaling-stroke;"/><path class="box" style="vector-effect: non-scaling-stroke;"/><path class="box" style="vector-effect: non-scaling-stroke;"/><path class="box" d="M676.28,61.06H686.24M676.28,63.81H686.24V60.06H676.28ZM681.26,63.81V66.87M681.26,60.06V58.66" style="vector-effect: non-scaling-stroke; stroke-width: 2px; stroke: rgb(38, 166, 154); stroke-opacity: 1; fill: rgb(38, 166, 154); fill-opacity: 1; opacity: 1;"/><path class="box" d="M696.61,61.06H706.58M696.61,61.51H706.58V60.06H696.61ZM701.595,61.51V63.1M701.595,60.06V58.26" style="vector-effect: non-scaling-stroke; stroke-width: 2px; stroke: rgb(238, 83, 79); stroke-opacity: 1; fill: rgb(238, 83, 79); fill-opacity: 1; opacity: 1;"/><path class="box" d="M716.95,63.129999999999995H726.92M716.95,64.13H726.92V61.58H716.95ZM721.935,64.13V64.6M721.935,61.58V59.59" style="vector-effect: non-scaling-stroke; stroke-width: 2px; stroke: rgb(238, 83, 79); stroke-opacity: 1; fill: rgb(238, 83, 79); fill-opacity: 1; opacity: 1;"/><path class="box" d="M737.29,65.11H747.25M737.29,65.26H747.25V64.11H737.29ZM742.27,65.26V67.55M742.27,64.11V57.42" style="vector-effect: non-scaling-stroke; stroke-width: 2px; stroke: rgb(238, 83, 79); stroke-opacity: 1; fill: rgb(238, 83, 79); fill-opacity: 1; opacity: 1;"/><path class="box" d="M757.62,48.36H767.59M757.62,65.39H767.59V47.36H757.62ZM762.605,65.39V68.06M762.605,47.36V41.67" style="vector-effect: non-scaling-stroke; stroke-width: 2px; stroke: rgb(38, 166, 154); stroke-opacity: 1; fill: rgb(38, 166, 154); fill-opacity: 1; opacity: 1;"/><path class="box" d="M777.96,47.13H787.92M777.96,47.31H787.92V47.13H777.96ZM782.94,47.31V51.13M782.94,47.13V37.06" style="vector-effect: non-scaling-stroke; stroke-width: 2px; stroke: rgb(38, 166, 154); stroke-opacity: 1; fill: rgb(38, 166, 154); fill-opacity: 1; opacity: 1;"/><path class="box" d="M798.29,39.93H808.26M798.29,47.17H808.26V38.93H798.29ZM803.275,47.17V49.75M803.275,38.93V38" style="vector-effect: non-scaling-stroke; stroke-width: 2px; stroke: rgb(38, 166, 154); stroke-opacity: 1; fill: rgb(38, 166, 154); fill-opacity: 1; opacity: 1;"/><path class="box" d="M818.63,42.27H828.6M818.63,43.27H828.6V38.96H818.63ZM823.615,43.27V43.59M823.615,38.96V38.77" style="vector-effect: non-scaling-stroke; stroke-width: 2px; stroke: rgb(238, 83, 79); stroke-opacity: 1; fill: rgb(238, 83, 79); fill-opacity: 1; opacity: 1;"/><path class="box" d="M838.97,49.26H848.93M838.97,50.26H848.93V43.29H838.97ZM843.95,50.26V50.31M843.95,43.29V42.54" style="vector-effect: non-scaling-stroke; stroke-width: 2px; stroke: rgb(238, 83, 79); stroke-opacity: 1; fill: rgb(238, 83, 79); fill-opacity: 1; opacity: 1;"/><path class="box" d="M859.3,58.19H869.27M859.3,59.19H869.27V50.26H859.3ZM864.285,59.19V61.04M864.285,50.26V44.39" style="vector-effect: non-scaling-stroke; stroke-width: 2px; stroke: rgb(238, 83, 79); stroke-opacity: 1; fill: rgb(238, 83, 79); fill-opacity: 1; opacity: 1;"/><path class="box" d="M879.64,78.53H889.6M879.64,79.53H889.6V59.22H879.64ZM884.62,79.53V80.67M884.62,59.22V56.39" style="vector-effect: non-scaling-stroke; stroke-width: 2px; stroke: rgb(238, 83, 79); stroke-opacity: 1; fill: rgb(238, 83, 79); fill-opacity: 1; opacity: 1;"/><path class="box" d="M899.98,85.36H909.94M899.98,86.36H909.94V79.76H899.98ZM904.96,86.36V88.93M904.96,79.76V75.36" style="vector-effect: non-scaling-stroke; stroke-width: 2px; stroke: rgb(238, 83, 79); stroke-opacity: 1; fill: rgb(238, 83, 79); fill-opacity: 1; opacity: 1;"/><path class="box" d="M920.31,87.93H930.28M920.31,88.93H930.28V86.33H920.31ZM925.295,88.93V91.41M925.295,86.33V85.11" style="vector-effect: non-scaling-stroke; stroke-width: 2px; stroke: rgb(238, 83, 79); stroke-opacity: 1; fill: rgb(238, 83, 79); fill-opacity: 1; opacity: 1;"/><path class="box" d="M940.65,87.67H950.61M940.65,88.67H950.61V87.53H940.65ZM945.63,88.67V91.32M945.63,87.53V86.73" style="vector-effect: non-scaling-stroke; stroke-width: 2px; stroke: rgb(38, 166, 154); stroke-opacity: 1; fill: rgb(38, 166, 154); fill-opacity: 1; opacity: 1;"/><path class="box" d="M960.98,82.58H970.95M960.98,87.52H970.95V81.58H960.98ZM965.965,87.52V88.76M965.965,81.58V79.87" style="vector-effect: non-scaling-stroke; stroke-width: 2px; stroke: rgb(38, 166, 154); stroke-opacity: 1; fill: rgb(38, 166, 154); fill-opacity: 1; opacity: 1;"/><path class="box" d="M981.32,91.25H991.28M981.32,92.25H991.28V81.56H981.32ZM986.3,92.25V92.55M986.3,81.56V81.56" style="vector-effect: non-scaling-stroke; stroke-width: 2px; stroke: rgb(238, 83, 79); stroke-opacity: 1; fill: rgb(238, 83, 79); fill-opacity: 1; opacity: 1;"/><path class="box" d="M1001.66,91.64H1011.62M1001.66,92.35H1011.62V91.64H1001.66ZM1006.64,92.35V107.06M1006.64,91.64V89.98" style="vector-effect: non-scaling-stroke; stroke-width: 2px; stroke: rgb(38, 166, 154); stroke-opacity: 1; fill: rgb(38, 166, 154); fill-opacity: 1; opacity: 1;"/><path class="box" d="M1021.99,92.64H1031.96M1021.99,93.4H1031.96V91.64H1021.99ZM1026.975,93.4V98.12M1026.975,91.64V85.07" style="vector-effect: non-scaling-stroke; stroke-width: 2px; stroke: rgb(238, 83, 79); stroke-opacity: 1; fill: rgb(238, 83, 79); fill-opacity: 1; opacity: 1;"/><path class="box" d="M1042.33,100.52H1052.29M1042.33,101.52H1052.29V93.42H1042.33ZM1047.31,101.52V102M1047.31,93.42V89.23" style="vector-effect: non-scaling-stroke; stroke-width: 2px; stroke: rgb(238, 83, 79); stroke-opacity: 1; fill: rgb(238, 83, 79); fill-opacity: 1; opacity: 1;"/><path class="box" d="M1062.66,99.03H1072.63M1062.66,101.51H1072.63V98.03H1062.66ZM1067.645,101.51V102.73M1067.645,98.03V97.12" style="vector-effect: non-scaling-stroke; stroke-width: 2px; stroke: rgb(38, 166, 154); stroke-opacity: 1; fill: rgb(38, 166, 154); fill-opacity: 1; opacity: 1;"/><path class="box" d="M1083,97.01H1092.97M1083,98.01H1092.97V97H1083ZM1087.9850000000001,98.01V103.06M1087.9850000000001,97V96.2" style="vector-effect: non-scaling-stroke; stroke-width: 2px; stroke: rgb(38, 166, 154); stroke-opacity: 1; fill: rgb(38, 166, 154); fill-opacity: 1; opacity: 1;"/><path class="box" d="M1103.34,114.29H1113.3M1103.34,115.29H1113.3V97.05H1103.34ZM1108.32,115.29V118.13M1108.32,97.05V95.2" style="vector-effect: non-scaling-stroke; stroke-width: 2px; stroke: rgb(238, 83, 79); stroke-opacity: 1; fill: rgb(238, 83, 79); fill-opacity: 1; opacity: 1;"/><path class="box" d="M1123.67,106.19H1133.64M1123.67,115.3H1133.64V105.19H1123.67ZM1128.6550000000002,115.3V115.92M1128.6550000000002,105.19V104.06" style="vector-effect: non-scaling-stroke; stroke-width: 2px; stroke: rgb(38, 166, 154); stroke-opacity: 1; fill: rgb(38, 166, 154); fill-opacity: 1; opacity: 1;"/><path class="box" d="M1144.01,104.23H1153.97M1144.01,105.23H1153.97V104.13H1144.01ZM1148.99,105.23V108.84M1148.99,104.13V97.12" style="vector-effect: non-scaling-stroke; stroke-width: 2px; stroke: rgb(38, 166, 154); stroke-opacity: 1; fill: rgb(38, 166, 154); fill-opacity: 1; opacity: 1;"/><path class="box" d="M1164.35,108.7H1174.31M1164.35,109.7H1174.31V104.09H1164.35ZM1169.33,109.7V112.27M1169.33,104.09V102.76" style="vector-effect: non-scaling-stroke; stroke-width: 2px; stroke: rgb(238, 83, 79); stroke-opacity: 1; fill: rgb(238, 83, 79); fill-opacity: 1; opacity: 1;"/><path class="box" d="M1184.68,110.72H1194.65M1184.68,111.69H1194.65V109.72H1184.68ZM1189.665,111.69V112.61M1189.665,109.72V109.58" style="vector-effect: non-scaling-stroke; stroke-width: 2px; stroke: rgb(238, 83, 79); stroke-opacity: 1; fill: rgb(238, 83, 79); fill-opacity: 1; opacity: 1;"/><path class="box" style="vector-effect: non-scaling-stroke;"/><path class="box" style="vector-effect: non-scaling-stroke;"/><path class="box" style="vector-effect: non-scaling-stroke;"/><path class="box" style="vector-effect: non-scaling-stroke;"/><path class="box" style="vector-effect: non-scaling-stroke;"/><path class="box" style="vector-effect: non-scaling-stroke;"/><path class="box" style="vector-effect: non-scaling-stroke;"/><path class="box" style="vector-effect: non-scaling-stroke;"/><path class="box" style="vector-effect: non-scaling-stroke;"/></g></g><g class="scatterlayer mlayer"><g class="trace scatter trace6118dc68-907d-46ad-a211-339f0b2e68ea" style="stroke-miterlimit: 2; opacity: 1;"><g class="fills"/><g class="errorbars"/><g class="lines"><path class="js-line" d="M10.17,105.45L30.5,103.06L50.84,109.18L71.18,116.45L91.51,112.28L111.85,98.99L132.18,73.59" style="vector-effect: non-scaling-stroke; fill: none; stroke: rgb(127, 127, 127); stroke-opacity: 0.75; stroke-width: 2px; opacity: 1;"/><path class="js-line" d="M152.52,71.28L193.19,70.22L213.53,74.77L233.87,74.82L254.2,85.86L274.54,88.07L294.87,82.66L315.21,67.05L335.55,49.23L355.88,56.44L376.22,56.27L396.55,54.35L416.89,54.71L437.23,54.93L457.56,50.93L477.9,51.45L498.24,50.43L518.57,57.83L538.91,56.96L559.24,55.71L579.58,49.37L599.92,46.47L620.25,52.33L640.59,60.64L660.92,63.28" style="vector-effect: non-scaling-stroke; fill: none; stroke: rgb(127, 127, 127); stroke-opacity: 0.75; stroke-width: 2px; opacity: 1;"/><path class="js-line" d="M681.26,74.42L701.6,65.64L721.93,65.44L742.27,66.74L762.61,72.51L782.94,73.32L803.28,73.3L823.61,66.35L843.95,53.24L864.29,61.48L884.62,83.01L904.96,96.98L925.29,103.62L945.63,102.4L965.97,92L1006.64,96.02L1026.97,97.94L1047.31,104.77L1067.65,102.98L1087.98,103.3L1108.32,116.2L1148.99,116.99L1169.33,118.42L1189.66,117.46" style="vector-effect: non-scaling-stroke; fill: none; stroke: rgb(127, 127, 127); stroke-opacity: 0.75; stroke-width: 2px; opacity: 1;"/></g><g class="points"/><g class="text"/></g><g class="trace scatter traceecba79f9-63ba-409c-a551-7b7f2fc8db43" style="stroke-miterlimit: 2; opacity: 1;"><g class="fills"/><g class="errorbars"/><g class="lines"><path class="js-line" d="M10.17,87.42L30.5,87.1L50.84,68.8L71.18,47.99L91.51,34.72L111.85,25.14L132.18,27.99" style="vector-effect: non-scaling-stroke; fill: none; stroke: rgb(127, 127, 127); stroke-opacity: 0.75; stroke-width: 2px; opacity: 1;"/><path class="js-line" d="M152.52,44.58L193.19,58.7L213.53,59.72L233.87,60.09L254.2,39.79L274.54,26.8L294.87,19.7L315.21,23.3L335.55,33.55L355.88,31.54L376.22,35.37L396.55,39.64L416.89,41.29L437.23,41.5L457.56,43.05L477.9,43.38L498.24,45.12L518.57,30.43L538.91,23.87L559.24,14.4L579.58,6.85L599.92,8.34L620.25,7.15L640.59,6.23L660.92,13.28" style="vector-effect: non-scaling-stroke; fill: none; stroke: rgb(127, 127, 127); stroke-opacity: 0.75; stroke-width: 2px; opacity: 1;"/><path class="js-line" d="M681.26,41.8L701.6,58.3L721.93,58.39L742.27,59.17L762.61,46.82L782.94,40.84L803.28,31.82L823.61,30.43L843.95,37.55L864.29,34.03L884.62,25.46L904.96,30.47L925.29,42.09L945.63,58.22L965.97,77.57L986.3,80.35L1006.64,80.75L1026.97,80.62L1047.31,79.38L1067.65,87.75L1087.98,89.34L1108.32,85.9L1128.66,90.21L1148.99,90.86L1169.33,94.1L1189.66,100.94" style="vector-effect: non-scaling-stroke; fill: none; stroke: rgb(127, 127, 127); stroke-opacity: 0.75; stroke-width: 2px; opacity: 1;"/></g><g class="points"/><g class="text"/></g><g class="trace scatter trace9313ef4b-24e2-490f-abcb-1ed386399966" style="stroke-miterlimit: 2; opacity: 1;"><g class="fills"/><g class="errorbars"/><g class="lines"><path class="js-line" d="M10.17,96.44L30.5,95.08L50.84,88.99L71.18,82.22L91.51,73.5L132.18,50.79" style="vector-effect: non-scaling-stroke; fill: none; stroke: rgb(220, 57, 18); stroke-opacity: 1; stroke-width: 2px; opacity: 1;"/><path class="js-line" d="M152.52,57.93L213.53,67.24L233.87,67.45L274.54,57.44L294.87,51.18L315.21,45.18L335.55,41.39L355.88,43.99L376.22,45.82L416.89,48L437.23,48.22L457.56,46.99L477.9,47.42L498.24,47.78L518.57,44.13L538.91,40.41L559.24,35.06L579.58,28.11L599.92,27.41L620.25,29.74L640.59,33.44L660.92,38.28" style="vector-effect: non-scaling-stroke; fill: none; stroke: rgb(220, 57, 18); stroke-opacity: 1; stroke-width: 2px; opacity: 1;"/><path class="js-line" d="M681.26,58.11L701.6,61.97L721.93,61.91L742.27,62.96L762.61,59.66L782.94,57.08L803.28,52.56L823.61,48.39L843.95,45.39L864.29,47.76L884.62,54.24L925.29,72.86L945.63,80.31L965.97,84.79L986.3,87.33L1026.97,89.28L1047.31,92.08L1067.65,95.37L1087.98,96.32L1108.32,101.05L1128.66,103.41L1148.99,103.93L1169.33,106.26L1189.66,109.2" style="vector-effect: non-scaling-stroke; fill: none; stroke: rgb(220, 57, 18); stroke-opacity: 1; stroke-width: 2px; opacity: 1;"/></g><g class="points"/><g class="text"/></g></g></g><g class="overplot"/><path class="xlines-above crisp" d="M0,0" style="fill: none;"/><path class="ylines-above crisp" d="M0,0" style="fill: none;"/><g class="overlines-above"/><g class="xaxislayer-above"/><g class="yaxislayer-above"><g class="ytick"><text text-anchor="end" x="39" y="4.199999999999999" transform="translate(0,138.01999999999998)" style="font-family: 'Open Sans', verdana, arial, sans-serif; font-size: 12px; fill: rgb(214, 223, 239); fill-opacity: 1; white-space: pre; opacity: 1;">1.23</text></g><g class="ytick"><text text-anchor="end" x="39" y="4.199999999999999" style="font-family: 'Open Sans', verdana, arial, sans-serif; font-size: 12px; fill: rgb(214, 223, 239); fill-opacity: 1; white-space: pre; opacity: 1;" transform="translate(0,103.09)">1.24</text></g><g class="ytick"><text text-anchor="end" x="39" y="4.199999999999999" style="font-family: 'Open Sans', verdana, arial, sans-serif; font-size: 12px; fill: rgb(214, 223, 239); fill-opacity: 1; white-space: pre; opacity: 1;" transform="translate(0,68.16)">1.25</text></g><g class="ytick"><text text-anchor="end" x="39" y="4.199999999999999" style="font-family: 'Open Sans', verdana, arial, sans-serif; font-size: 12px; fill: rgb(214, 223, 239); fill-opacity: 1; white-space: pre; opacity: 1;" transform="translate(0,33.23)">1.26</text></g></g><g class="overaxes-above"/></g><g class="subplot x2y2"><g class="layer-subplot"><g class="shapelayer"><path data-index="0" fill-rule="evenodd" d="M50.17,307H1250V192.78000000000003H50.17Z" clip-path="url(#clip88224bx2y2)" style="opacity: 0.2; stroke: rgb(0, 0, 0); stroke-opacity: 0; fill: rgb(123, 104, 238); fill-opacity: 1; stroke-width: 0px;"/></g><g class="imagelayer"/></g><g class="minor-gridlayer"><g class="x2"/><g class="y2"/></g><g class="gridlayer"><g class="x2"><path class="x2grid crisp" transform="translate(90.84,0)" d="M0,182.35000000000002v124.65" style="stroke: rgb(47, 62, 78); stroke-opacity: 1; stroke-width: 1px;"/><path class="x2grid crisp" transform="translate(192.52,0)" d="M0,182.35000000000002v124.65" style="stroke: rgb(47, 62, 78); stroke-opacity: 1; stroke-width: 1px;"/><path class="x2grid crisp" transform="translate(253.53,0)" d="M0,182.35000000000002v124.65" style="stroke: rgb(47, 62, 78); stroke-opacity: 1; stroke-width: 1px;"/><path class="x2grid crisp" transform="translate(497.56,0)" d="M0,182.35000000000002v124.65" style="stroke: rgb(47, 62, 78); stroke-opacity: 1; stroke-width: 1px;"/><path class="x2grid crisp" transform="translate(721.26,0)" d="M0,182.35000000000002v124.65" style="stroke: rgb(47, 62, 78); stroke-opacity: 1; stroke-width: 1px;"/><path class="x2grid crisp" transform="translate(904.29,0)" d="M0,182.35000000000002v124.65" style="stroke: rgb(47, 62, 78); stroke-opacity: 1; stroke-width: 1px;"/><path class="x2grid crisp" transform="translate(1148.32,0)" d="M0,182.35000000000002v124.65" style="stroke: rgb(47, 62, 78); stroke-opacity: 1; stroke-width: 1px;"/></g><g class="y2"><path class="y2grid crisp" transform="translate(0,272.73)" d="M40,0h1210" style="stroke: rgb(47, 62, 78); stroke-opacity: 1; stroke-width: 1px;"/><path class="y2grid crisp" transform="translate(0,227.04000000000002)" d="M40,0h1210" style="stroke: rgb(47, 62, 78); stroke-opacity: 1; stroke-width: 1px;"/></g></g><g class="zerolinelayer"/><path class="xlines-below"/><path class="ylines-below"/><g class="overlines-below"/><g class="xaxislayer-below"/><g class="yaxislayer-below"/><g class="overaxes-below"/><g class="plot" transform="translate(40,182.35000000000002)" clip-path="url(#clip88224bx2y2plot)"><g class="scatterlayer mlayer"><g class="trace scatter traceda107472-3195-4ae9-93e0-ecd2a23cd041" style="stroke-miterlimit: 2; opacity: 1;"><g class="fills"/><g class="errorbars"/><g class="lines"><path class="js-line" d="M10.17,58.01L30.5,54.18L50.84,34.79L71.18,25.64L91.51,23.85L111.85,18.39L132.18,16.84" style="vector-effect: non-scaling-stroke; fill: none; stroke: rgb(148, 103, 189); stroke-opacity: 1; stroke-width: 2px; opacity: 1;"/><path class="js-line" d="M152.52,48.17L172.86,48.46L193.19,53.82L213.53,59.2L233.87,52.71L254.2,34.35L274.54,32.27L294.87,32.75L315.21,39.87L335.55,44.01L355.88,50.56L376.22,45.06L396.55,42.96L416.89,48.93L437.23,48.77L457.56,47.84L477.9,48.98L498.24,46.15L518.57,34.63L538.91,34.23L559.24,27.78L579.58,23.36L599.92,54.91L620.25,55.38L640.59,61.33L660.92,58.38" style="vector-effect: non-scaling-stroke; fill: none; stroke: rgb(148, 103, 189); stroke-opacity: 1; stroke-width: 2px; opacity: 1;"/><path class="js-line" d="M681.26,71.49L701.6,72.71L721.93,74.94L742.27,75.92L762.61,59.68L782.94,59.49L803.28,52.84L823.61,57.18L843.95,63.88L864.29,71.81L884.62,87.06L904.96,91.47L925.29,93.1L945.63,91.67L965.97,85.62L986.3,92.93L1006.64,92.29L1026.97,93.51L1047.31,98.96L1067.65,95.01L1087.98,93.83L1108.32,105.64L1128.66,94.64L1148.99,93.51L1169.33,97.2L1189.66,98.51" style="vector-effect: non-scaling-stroke; fill: none; stroke: rgb(148, 103, 189); stroke-opacity: 1; stroke-width: 2px; opacity: 1;"/></g><g class="points"/><g class="text"/></g><g class="trace scatter tracefcce9b82-a62a-4a91-b887-49f69639d0ce" style="stroke-miterlimit: 2; opacity: 1;"><g class="fills"/><g class="errorbars"/><g class="lines"><path class="js-line" d="M10.17,64.02L30.5,62.52L50.84,66.2L71.18,71.06L91.51,67.81L111.85,56.5L132.18,36.61" style="vector-effect: non-scaling-stroke; fill: none; stroke: rgb(127, 127, 127); stroke-opacity: 0.75; stroke-width: 2px; opacity: 1;"/><path class="js-line" d="M152.52,56.27L193.19,55.24L213.53,60.24L233.87,60.56L254.2,66.52L274.54,68.44L294.87,65.04L315.21,53.69L335.55,45.78L355.88,53.75L376.22,54.31L396.55,51.49L416.89,52.17L437.23,52.86L457.56,51.38L477.9,52.11L498.24,50.29L518.57,56.1L538.91,55.45L559.24,54.26L579.58,48.64L599.92,56.61L620.25,66.18L640.59,76L660.92,78.37" style="vector-effect: non-scaling-stroke; fill: none; stroke: rgb(127, 127, 127); stroke-opacity: 0.75; stroke-width: 2px; opacity: 1;"/><path class="js-line" d="M681.26,84.02L701.6,76.56L721.93,76.08L742.27,77.23L762.61,82.64L782.94,83.33L803.28,82.98L823.61,76.72L843.95,65.83L864.29,73.96L884.62,90.74L904.96,100.59L925.29,104.6L945.63,102.76L965.97,95.59L1006.64,96.72L1026.97,96.92L1047.31,101.15L1067.65,99.31L1087.98,99.29L1108.32,106.51L1169.33,106.02L1189.66,106.41" style="vector-effect: non-scaling-stroke; fill: none; stroke: rgb(127, 127, 127); stroke-opacity: 0.75; stroke-width: 2px; opacity: 1;"/></g><g class="points"/><g class="text"/></g><g class="trace scatter trace7bd0b9d0-e158-41ed-be0b-6b8c1fff9a5d" style="stroke-miterlimit: 2; opacity: 1;"><g class="fills"/><g class="errorbars"/><g class="lines"><path class="js-line" d="M10.17,46.1L30.5,45.91L50.84,33.01L71.18,19.79L91.51,10.77L111.85,6.23L132.18,11.19" style="vector-effect: non-scaling-stroke; fill: none; stroke: rgb(127, 127, 127); stroke-opacity: 0.75; stroke-width: 2px; opacity: 1;"/><path class="js-line" d="M152.52,26.1L193.19,42.11L213.53,43.38L233.87,44.39L254.2,32.9L274.54,24.5L294.87,19.47L315.21,23.09L335.55,27.52L355.88,26.04L376.22,30.59L396.55,37.5L416.89,40.44L437.23,41.65L457.56,42.05L477.9,42.89L498.24,45.98L518.57,34.44L538.91,29.28L559.24,22.44L579.58,17.82L599.92,13.36L620.25,12.08L640.59,13.1L660.92,22.97" style="vector-effect: non-scaling-stroke; fill: none; stroke: rgb(127, 127, 127); stroke-opacity: 0.75; stroke-width: 2px; opacity: 1;"/><path class="js-line" d="M681.26,56.08L701.6,70.04L721.93,70.26L742.27,70.72L762.61,59.25L782.94,53.77L803.28,46.17L823.61,45.33L843.95,51.4L864.29,48.12L884.62,42.37L904.96,47.97L925.29,58.32L965.97,83.98L986.3,85.47L1026.97,85.49L1047.31,84.17L1067.65,89.77L1087.98,90.15L1108.32,88.27L1128.66,88.84L1148.99,87.35L1169.33,87.91L1189.66,89.38" style="vector-effect: non-scaling-stroke; fill: none; stroke: rgb(127, 127, 127); stroke-opacity: 0.75; stroke-width: 2px; opacity: 1;"/></g><g class="points"/><g class="text"/></g><g class="trace scatter trace68a2841d-6716-4677-a817-bf08df718120" style="stroke-miterlimit: 2; opacity: 1;"><g class="fills"/><g class="errorbars"/><g class="lines"><path class="js-line" d="M10.17,55.06L30.5,54.21L50.84,49.6L71.18,45.42L91.51,39.29L132.18,23.9" style="vector-effect: non-scaling-stroke; fill: none; stroke: rgb(127, 127, 127); stroke-opacity: 1; stroke-width: 2px; opacity: 1;"/><path class="js-line" d="M152.52,41.18L213.53,51.81L233.87,52.47L274.54,46.47L294.87,42.26L315.21,38.39L335.55,36.65L376.22,42.45L396.55,44.49L416.89,46.31L437.23,47.26L457.56,46.71L477.9,47.5L498.24,48.13L518.57,45.27L538.91,42.37L559.24,38.35L579.58,33.23L599.92,34.98L620.25,39.13L640.59,44.55L660.92,50.67" style="vector-effect: non-scaling-stroke; fill: none; stroke: rgb(127, 127, 127); stroke-opacity: 1; stroke-width: 2px; opacity: 1;"/><path class="js-line" d="M681.26,70.05L701.6,73.3L721.93,73.17L742.27,73.98L762.61,70.95L782.94,68.55L803.28,64.57L823.61,61.02L843.95,58.62L864.29,61.04L884.62,66.55L925.29,81.46L945.63,87.02L965.97,89.78L986.3,90.96L1026.97,91.21L1047.31,92.66L1067.65,94.54L1087.98,94.72L1108.32,97.39L1128.66,97.61L1148.99,96.53L1169.33,96.96L1189.66,97.9" style="vector-effect: non-scaling-stroke; fill: none; stroke: rgb(127, 127, 127); stroke-opacity: 1; stroke-width: 2px; opacity: 1;"/></g><g class="points"/><g class="text"/></g></g></g><g class="overplot"/><path class="xlines-above crisp" d="M0,0" style="fill: none;"/><path class="ylines-above crisp" d="M0,0" style="fill: none;"/><g class="overlines-above"/><g class="xaxislayer-above"><g class="x2tick"><text text-anchor="middle" x="0" y="320" transform="translate(90.84,0)" style="font-family: 'Open Sans', verdana, arial, sans-serif; font-size: 12px; fill: rgb(214, 223, 239); fill-opacity: 1; white-space: pre; opacity: 1;"><tspan class="line" dy="0em" x="0" y="320">Sep 13</tspan><tspan class="line" dy="1.3em" x="0" y="320">2019</tspan></text></g><g class="x2tick"><text text-anchor="middle" x="0" y="320" style="font-family: 'Open Sans', verdana, arial, sans-serif; font-size: 12px; fill: rgb(214, 223, 239); fill-opacity: 1; white-space: pre; opacity: 1;" transform="translate(192.52,0)">Sep 16</text></g><g class="x2tick"><text text-anchor="middle" x="0" y="320" style="font-family: 'Open Sans', verdana, arial, sans-serif; font-size: 12px; fill: rgb(214, 223, 239); fill-opacity: 1; white-space: pre; opacity: 1;" transform="translate(253.53,0)">Sep 17</text></g><g class="x2tick"><text text-anchor="middle" x="0" y="320" style="font-family: 'Open Sans', verdana, arial, sans-serif; font-size: 12px; fill: rgb(214, 223, 239); fill-opacity: 1; white-space: pre; opacity: 1;" transform="translate(497.56,0)">Sep 19</text></g><g class="x2tick"><text text-anchor="middle" x="0" y="320" style="font-family: 'Open Sans', verdana, arial, sans-serif; font-size: 12px; fill: rgb(214, 223, 239); fill-opacity: 1; white-space: pre; opacity: 1;" transform="translate(721.26,0)">Sep 23</text></g><g class="x2tick"><text text-anchor="middle" x="0" y="320" style="font-family: 'Open Sans', verdana, arial, sans-serif; font-size: 12px; fill: rgb(214, 223, 239); fill-opacity: 1; white-space: pre; opacity: 1;" transform="translate(904.29,0)">Sep 25</text></g><g class="x2tick"><text text-anchor="middle" x="0" y="320" style="font-family: 'Open Sans', verdana, arial, sans-serif; font-size: 12px; fill: rgb(214, 223, 239); fill-opacity: 1; white-space: pre; opacity: 1;" transform="translate(1148.32,0)">Sep 27</text></g></g><g class="yaxislayer-above"><g class="y2tick"><text text-anchor="end" x="39" y="4.199999999999999" transform="translate(0,272.73)" style="font-family: 'Open Sans', verdana, arial, sans-serif; font-size: 12px; fill: rgb(214, 223, 239); fill-opacity: 1; white-space: pre; opacity: 1;">40</text></g><g class="y2tick"><text text-anchor="end" x="39" y="4.199999999999999" style="font-family: 'Open Sans', verdana, arial, sans-serif; font-size: 12px; fill: rgb(214, 223, 239); fill-opacity: 1; white-space: pre; opacity: 1;" transform="translate(0,227.04000000000002)">60</text></g></g><g class="overaxes-above"/></g></g><g class="polarlayer"/><g class="smithlayer"/><g class="ternarylayer"/><g class="geolayer"/><g class="funnelarealayer"/><g class="pielayer"/><g class="iciclelayer"/><g class="treemaplayer"/><g class="sunburstlayer"/><g class="glimages"/><defs id="topdefs-88224b"><g class="clips"/></defs><g class="layer-above"><g class="imagelayer"/><g class="shapelayer"/></g><g class="infolayer"><g class="g-gtitle"><text class="gtitle" x="64" y="15" text-anchor="start" dy="0em" style="font-family: 'Open Sans', verdana, arial, sans-serif; font-size: 18px; fill: rgb(214, 223, 239); opacity: 1; font-weight: normal; white-space: pre;">H4 OHLCV with BBands on Price and RSI</text></g><g class="g-xtitle"/><g class="g-x2title"/><g class="g-ytitle"/><g class="g-y2title"/></g></svg>